<svg width="35" height="35" viewBox="0 0 35 35" fill="none" xmlns="http://www.w3.org/2000/svg">
<path d="M8.75 21.1466C8.75 21.5333 8.59635 21.9043 8.32286 22.1778C8.04937 22.4513 7.67844 22.6049 7.29167 22.6049C6.90489 22.6049 6.53396 22.4513 6.26047 22.1778C5.98698 21.9043 5.83333 21.5333 5.83333 21.1466V14.5841C5.83333 14.1973 5.98698 13.8264 6.26047 13.5529C6.53396 13.2794 6.90489 13.1257 7.29167 13.1257C7.67844 13.1257 8.04937 13.2794 8.32286 13.5529C8.59635 13.8264 8.75 14.1973 8.75 14.5841V21.1466Z" fill="#7CB342"/>
<path d="M29.1667 21.1466C29.1667 21.5333 29.013 21.9043 28.7395 22.1778C28.466 22.4513 28.0951 22.6049 27.7083 22.6049C27.3216 22.6049 26.9506 22.4513 26.6771 22.1778C26.4036 21.9043 26.25 21.5333 26.25 21.1466V14.5841C26.25 14.1973 26.4036 13.8264 26.6771 13.5529C26.9506 13.2794 27.3216 13.1257 27.7083 13.1257C28.0951 13.1257 28.466 13.2794 28.7395 13.5529C29.013 13.8264 29.1667 14.1973 29.1667 14.5841V21.1466Z" fill="#7CB342"/>
<path d="M16.0417 29.1667C16.0417 29.5535 15.888 29.9244 15.6145 30.1979C15.341 30.4714 14.9701 30.625 14.5833 30.625C14.1966 30.625 13.8256 30.4714 13.5521 30.1979C13.2786 29.9244 13.125 29.5535 13.125 29.1667V22.6042C13.125 22.2174 13.2786 21.8465 13.5521 21.573C13.8256 21.2995 14.1966 21.1459 14.5833 21.1459C14.9701 21.1459 15.341 21.2995 15.6145 21.573C15.888 21.8465 16.0417 22.2174 16.0417 22.6042V29.1667Z" fill="#7CB342"/>
<path d="M21.875 29.1667C21.875 29.5535 21.7214 29.9244 21.4479 30.1979C21.1744 30.4714 20.8034 30.625 20.4167 30.625C20.0299 30.625 19.659 30.4714 19.3855 30.1979C19.112 29.9244 18.9583 29.5535 18.9583 29.1667V22.6042C18.9583 22.2174 19.112 21.8465 19.3855 21.573C19.659 21.2995 20.0299 21.1459 20.4167 21.1459C20.8034 21.1459 21.1744 21.2995 21.4479 21.573C21.7214 21.8465 21.875 22.2174 21.875 22.6042V29.1667Z" fill="#7CB342"/>
<path d="M10.2083 13.1257V24.0625C10.2083 24.4493 10.362 24.8202 10.6355 25.0937C10.909 25.3672 11.2799 25.5208 11.6667 25.5208H23.3333C23.7201 25.5208 24.091 25.3672 24.3645 25.0937C24.638 24.8202 24.7917 24.4493 24.7917 24.0625V13.1257H10.2083Z" fill="#7CB342"/>
<path d="M17.5 5.83337C13.125 5.83337 10.4599 8.49119 10.2083 11.6667H24.7917C24.5394 8.49119 21.875 5.83337 17.5 5.83337ZM14.5833 9.91525C14.3899 9.91525 14.2045 9.83843 14.0677 9.70168C13.931 9.56494 13.8542 9.37947 13.8542 9.18608C13.8542 8.9927 13.931 8.80723 14.0677 8.67048C14.2045 8.53374 14.3899 8.45692 14.5833 8.45692C14.7767 8.45692 14.9622 8.53374 15.0989 8.67048C15.2357 8.80723 15.3125 8.9927 15.3125 9.18608C15.3125 9.37947 15.2357 9.56494 15.0989 9.70168C14.9622 9.83843 14.7767 9.91525 14.5833 9.91525ZM20.4167 9.91525C20.2233 9.91525 20.0378 9.83843 19.9011 9.70168C19.7643 9.56494 19.6875 9.37947 19.6875 9.18608C19.6875 8.9927 19.7643 8.80723 19.9011 8.67048C20.0378 8.53374 20.2233 8.45692 20.4167 8.45692C20.6101 8.45692 20.7955 8.53374 20.9323 8.67048C21.069 8.80723 21.1458 8.9927 21.1458 9.18608C21.1458 9.37947 21.069 9.56494 20.9323 9.70168C20.7955 9.83843 20.6101 9.91525 20.4167 9.91525Z" fill="#7CB342"/>
<path d="M21.875 5.10413L20.6602 6.92631" stroke="#7CB342" stroke-linecap="round"/>
<path d="M13.125 5.10413L14.097 6.62225" stroke="#7CB342" stroke-linecap="round"/>
</svg>
