<svg width="35" height="35" viewBox="0 0 35 35" fill="none" xmlns="http://www.w3.org/2000/svg">
<mask id="mask0" mask-type="alpha" maskUnits="userSpaceOnUse" x="0" y="0" width="35" height="35">
<rect width="35" height="35" fill="#C4C4C4" fill-opacity="0.31"/>
</mask>
<g mask="url(#mask0)">
</g>
<g clip-path="url(#clip0)">
<path d="M17.4848 34.2009L7.31074 31.5112L5.04346 7.29517H29.9565L27.6869 31.5075L17.4848 34.2009Z" fill="#264DE4"/>
<path d="M25.7438 29.9658L27.6833 9.27515H17.5V32.1421L25.7438 29.9658Z" fill="#2965F1"/>
<path d="M10.2411 18.2566L10.5206 21.2266H17.5V18.2566H10.2411Z" fill="#EBEBEB"/>
<path d="M9.67938 12.2452L9.96288 15.2152H17.5V12.2452H9.67938Z" fill="#EBEBEB"/>
<path d="M17.5 25.97L17.4863 25.9735L14.0129 25.0804L13.7908 22.7117H10.66L11.0969 27.375L17.4857 29.0638L17.5 29.0601V25.97Z" fill="#EBEBEB"/>
<path d="M10.9066 0.714233H14.684V2.21853H12.4863V3.72283H14.6842V5.22703H10.9066V0.714233Z" fill="black"/>
<path d="M15.4396 0.714233H19.217V2.02231H17.0192V2.28391H19.217V5.29251H15.4396V3.91887H17.6374V3.65727H15.4395V0.714233H15.4396Z" fill="black"/>
<path d="M19.9726 0.714233H23.75V2.02231H21.5523V2.28391H23.75V5.29251H19.9726V3.91887H22.1703V3.65727H19.9727V0.714233H19.9726Z" fill="black"/>
<path d="M24.739 18.2566L25.302 12.2452H17.4893V15.2152H21.884L21.6002 18.2566H17.4893V21.2266H21.3298L20.9677 25.0785L17.4892 25.9725V29.0624L23.883 27.375L23.9299 26.8732L24.6629 19.0541L24.739 18.2566Z" fill="white"/>
</g>
<defs>
<clipPath id="clip0">
<rect x="5" y="0.714233" width="25" height="33.5714" fill="white"/>
</clipPath>
</defs>
</svg>
