<svg width="35" height="35" viewBox="0 0 35 35" fill="none" xmlns="http://www.w3.org/2000/svg">
<mask id="mask0" mask-type="alpha" maskUnits="userSpaceOnUse" x="0" y="0" width="35" height="35">
<rect width="35" height="35" fill="#C4C4C4"/>
</mask>
<g mask="url(#mask0)">
</g>
<g clip-path="url(#clip0)">
<path d="M16.0898 0.213379H21.7749V26.2703C18.8629 26.8212 16.7191 27.0379 14.3996 27.0379C7.45596 27.0306 3.84146 23.9285 3.84146 17.9708C3.84146 12.2304 7.67546 8.50496 13.6167 8.50496C14.5387 8.50496 15.241 8.57753 16.0898 8.79489V0.213379ZM16.289 13.4907C15.6231 13.2732 15.0744 13.2007 14.372 13.2007C11.4965 13.2007 9.83564 14.9547 9.83564 18.0285C9.83564 21.0212 11.4234 22.6737 14.3355 22.6737C14.9646 22.6737 15.4768 22.6382 16.289 22.5295V13.4907Z" fill="#2BA977"/>
<path d="M31.0718 9.20459V22.2509C31.0718 26.7439 30.7352 28.9045 29.7474 30.7673C28.8255 32.5581 27.6109 33.6874 25.1013 34.9347L19.8259 32.4487C22.3355 31.2824 23.5501 30.2519 24.3257 28.6791C25.1378 27.0708 25.3939 25.208 25.3939 20.3084V9.2047H31.0718V9.20459Z" fill="#2BA977"/>
<path d="M24.821 0.213379H30.5061V5.98998H24.821V0.213379Z" fill="#2BA977"/>
</g>
<defs>
<clipPath id="clip0">
<rect x="3.84146" y="0.213379" width="27.3171" height="34.7866" fill="white"/>
</clipPath>
</defs>
</svg>
