<svg width="35" height="35" viewBox="0 0 35 35" fill="none" xmlns="http://www.w3.org/2000/svg">
<mask id="mask0" mask-type="alpha" maskUnits="userSpaceOnUse" x="0" y="0" width="35" height="35">
<rect width="35" height="35" fill="#C4C4C4" fill-opacity="0.26"/>
</mask>
<g mask="url(#mask0)">
</g>
<g clip-path="url(#clip0)">
<path d="M5.83334 27.914L6.02685 27.6361L15.1783 9.82633L15.1976 9.63777L11.1636 1.86588C10.8254 1.21487 9.87384 1.37949 9.76301 2.10828L5.83334 27.914Z" fill="#FFC24A"/>
<path d="M5.94754 27.7018L6.09383 27.4091L15.1494 9.78591L11.1254 1.98242C10.7909 1.33823 9.94164 1.50248 9.8319 2.22361L5.94754 27.7018Z" fill="#FFA712"/>
<g filter="url(#filter0_i)">
<path d="M5.94754 27.7018L6.09383 27.4091L15.1494 9.78591L11.1254 1.98242C10.7909 1.33823 9.94164 1.50248 9.8319 2.22361L5.94754 27.7018Z" fill="#FFA000"/>
</g>
<path d="M18.1385 15.5163L21.1422 12.3612L18.1376 6.47835C17.8524 5.92147 17.056 5.91979 16.7738 6.47835L15.1685 9.61816V9.88552L18.1384 15.5163H18.1385Z" fill="#F4BD62"/>
<path d="M18.0849 15.3847L21.0051 12.3173L18.0849 6.61423C17.8076 6.07287 17.134 6.01612 16.8596 6.55907L15.2459 9.74769L15.1976 9.91072L18.0849 15.3847Z" fill="#FFA50E"/>
<g filter="url(#filter1_i)">
<path d="M18.0849 15.3847L21.0051 12.3173L18.0849 6.61423C17.8076 6.07287 17.134 6.01612 16.8596 6.55907L15.2459 9.74769L15.1976 9.91072L18.0849 15.3847Z" fill="#FFA100"/>
</g>
<path d="M5.83334 27.9137L5.92103 27.8232L6.23967 27.6905L17.9498 15.7247L18.0982 15.3104L15.177 9.60107L5.83334 27.9137Z" fill="#F6820C"/>
<path d="M18.5136 33.9484L29.1116 27.8863L26.0852 8.76953C25.9905 8.17142 25.2751 7.935 24.8577 8.36381L5.83334 27.9138L16.3705 33.9479C16.6981 34.1355 17.0669 34.234 17.442 34.2341C17.8171 34.2341 18.186 34.1358 18.5136 33.9484Z" fill="#FDE068"/>
<path d="M29.0167 27.8354L26.0132 8.86378C25.9193 8.27016 25.3243 8.02458 24.9101 8.45021L5.95093 27.8765L16.3725 33.8508C16.6975 34.037 17.0635 34.1347 17.4358 34.1348C17.808 34.1349 18.1741 34.0373 18.4993 33.8514L29.0168 27.8353L29.0167 27.8354Z" fill="#FCCA3F"/>
<path d="M18.5145 33.7696C18.1869 33.957 17.818 34.0554 17.4429 34.0553C17.0678 34.0552 16.699 33.9567 16.3714 33.7692L5.91912 27.8218L5.83435 27.9137L16.3714 33.9478C16.699 34.1354 17.0678 34.2339 17.4429 34.2339C17.8181 34.234 18.187 34.1357 18.5146 33.9483L29.1125 27.8862L29.0866 27.7224L18.5146 33.7697L18.5145 33.7696Z" fill="#EEAB37"/>
</g>
<defs>
<filter id="filter0_i" x="5.94754" y="1.57983" width="9.2019" height="26.122" filterUnits="userSpaceOnUse" color-interpolation-filters="sRGB">
<feFlood flood-opacity="0" result="BackgroundImageFix"/>
<feBlend mode="normal" in="SourceGraphic" in2="BackgroundImageFix" result="shape"/>
<feColorMatrix in="SourceAlpha" type="matrix" values="0 0 0 0 0 0 0 0 0 0 0 0 0 0 0 0 0 0 127 0" result="hardAlpha"/>
<feOffset/>
<feGaussianBlur stdDeviation="17.5"/>
<feComposite in2="hardAlpha" operator="arithmetic" k2="-1" k3="1"/>
<feColorMatrix type="matrix" values="0 0 0 0 0 0 0 0 0 0 0 0 0 0 0 0 0 0 0.06 0"/>
<feBlend mode="normal" in2="shape" result="effect1_innerShadow"/>
</filter>
<filter id="filter1_i" x="15.1976" y="-0.821045" width="6.80754" height="16.2058" filterUnits="userSpaceOnUse" color-interpolation-filters="sRGB">
<feFlood flood-opacity="0" result="BackgroundImageFix"/>
<feBlend mode="normal" in="SourceGraphic" in2="BackgroundImageFix" result="shape"/>
<feColorMatrix in="SourceAlpha" type="matrix" values="0 0 0 0 0 0 0 0 0 0 0 0 0 0 0 0 0 0 127 0" result="hardAlpha"/>
<feOffset dx="1" dy="-9"/>
<feGaussianBlur stdDeviation="3.5"/>
<feComposite in2="hardAlpha" operator="arithmetic" k2="-1" k3="1"/>
<feColorMatrix type="matrix" values="0 0 0 0 0 0 0 0 0 0 0 0 0 0 0 0 0 0 0.09 0"/>
<feBlend mode="normal" in2="shape" result="effect1_innerShadow"/>
</filter>
<clipPath id="clip0">
<rect x="5.83334" y="1.45825" width="23.3333" height="32.8125" fill="white"/>
</clipPath>
</defs>
</svg>
