<svg width="35" height="35" viewBox="0 0 35 35" fill="none" xmlns="http://www.w3.org/2000/svg">
<g clip-path="url(#clip0)">
<path d="M34.3399 15.9408L19.0586 0.660288C18.1791 -0.219771 16.7517 -0.219771 15.8711 0.660288L12.6979 3.83353L16.7233 7.85894C17.6587 7.54285 18.7314 7.7549 19.4771 8.50056C20.2263 9.25101 20.4369 10.3329 20.1131 11.2713L23.9925 15.1508C24.9311 14.8275 26.014 15.0367 26.7637 15.7875C27.8113 16.8348 27.8113 18.5322 26.7637 19.5801C25.7157 20.6282 24.0183 20.6282 22.9698 19.5801C22.1818 18.7912 21.9871 17.6339 22.3861 16.6631L18.7682 13.0452L18.7678 22.5659C19.0301 22.6956 19.2696 22.8669 19.4771 23.0731C20.5248 24.1204 20.5248 25.8179 19.4771 26.8667C18.4291 27.9142 16.731 27.9142 15.6845 26.8667C14.6368 25.8179 14.6368 24.1205 15.6845 23.0733C15.9356 22.8221 16.234 22.6231 16.5624 22.488V12.8786C16.2335 12.7443 15.9349 12.5453 15.6845 12.2933C14.8907 11.5006 14.6999 10.3359 15.1066 9.36121L11.1385 5.39267L0.660351 15.8701C-0.220117 16.751 -0.220117 18.1785 0.660351 19.0587L15.942 34.3395C16.8217 35.2196 18.2488 35.2196 19.1297 34.3395L34.3398 19.1296C35.22 18.2492 35.22 16.8209 34.3398 15.9408" fill="#DE4C36"/>
</g>
<defs>
<clipPath id="clip0">
<rect width="35" height="35" fill="white"/>
</clipPath>
</defs>
</svg>
