<svg width="35" height="35" viewBox="0 0 35 35" fill="none" xmlns="http://www.w3.org/2000/svg">
<mask id="mask0" mask-type="alpha" maskUnits="userSpaceOnUse" x="0" y="0" width="35" height="35">
<rect width="35" height="35" fill="#C4C4C4"/>
</mask>
<g mask="url(#mask0)">
</g>
<g clip-path="url(#clip0)">
<path d="M29.2832 7.52881L27.1363 31.7481L17.4856 34.4422L7.8615 31.7518L5.71677 7.52881H29.2832Z" fill="#E44D26"/>
<path d="M17.5 32.3828L25.2982 30.2058L27.1328 9.50928H17.5V32.3828Z" fill="#F16529"/>
<path d="M13.3264 15.4511H17.5V12.4802H10.1021L10.1727 13.2772L10.8979 21.4641H17.5V18.4933H13.596L13.3264 15.4511Z" fill="#EBEBEB"/>
<path d="M13.9913 22.9497H11.0297L11.443 27.6144L17.4864 29.3037L17.5 29.3V26.209L17.487 26.2125L14.2014 25.3191L13.9913 22.9497Z" fill="#EBEBEB"/>
<path d="M7.90936 0.945923H9.40865V2.43754H10.7802V0.945923H12.2796V5.4629H10.7803V3.95036H9.40874V5.4629H7.90946V0.945923H7.90936Z" fill="black"/>
<path d="M14.2511 2.44386H12.9314V0.945923H17.0712V2.44386H15.7506V5.4629H14.2513V2.44386H14.2513H14.2511Z" fill="black"/>
<path d="M17.7281 0.945923H19.2915L20.2531 2.53307L21.2138 0.945923H22.7778V5.4629H21.2846V3.22404L20.2531 4.83007H20.2272L19.1951 3.22404V5.4629H17.7281V0.945923Z" fill="black"/>
<path d="M23.5239 0.945923H25.0237V3.96989H27.1321V5.4629H23.5238V0.945923H23.5239Z" fill="black"/>
<path d="M17.4898 21.4641H21.1227L20.7802 25.3171L17.4897 26.2114V29.3022L23.5379 27.6143L23.5823 27.1124L24.2757 19.291L24.3476 18.4933H17.4898V21.4641Z" fill="white"/>
<path d="M17.4898 15.4438V15.4511H24.6161L24.6752 14.7834L24.8097 13.2772L24.8802 12.4802H17.4898V15.4439V15.4438Z" fill="white"/>
</g>
<defs>
<clipPath id="clip0">
<rect x="5.67566" y="0.945923" width="23.6486" height="33.5811" fill="white"/>
</clipPath>
</defs>
</svg>
