<svg width="35" height="35" viewBox="0 0 35 35" fill="none" xmlns="http://www.w3.org/2000/svg">
<mask id="mask0" mask-type="alpha" maskUnits="userSpaceOnUse" x="0" y="0" width="35" height="35">
<rect width="35" height="35" fill="#C4C4C4"/>
</mask>
<g mask="url(#mask0)">
</g>
<g clip-path="url(#clip0)">
<path d="M12.8017 27.0565C12.8017 27.0565 11.4667 27.8329 13.7519 28.0956C16.5204 28.4114 17.9353 28.3662 20.9862 27.7887C20.9862 27.7887 21.7884 28.2916 22.9085 28.7273C16.0693 31.6585 7.42971 28.5575 12.8017 27.0565Z" fill="#5382A1"/>
<path d="M11.966 23.2314C11.966 23.2314 10.4685 24.3399 12.7555 24.5764C15.7129 24.8815 18.0484 24.9065 22.0898 24.1283C22.0898 24.1283 22.6487 24.695 23.5277 25.0049C15.2585 27.4229 6.04812 25.1956 11.966 23.2314Z" fill="#5382A1"/>
<path d="M19.0115 16.7428C20.6967 18.683 18.5687 20.4289 18.5687 20.4289C18.5687 20.4289 22.8477 18.22 20.8826 15.4538C19.0472 12.8743 17.6396 11.5924 25.2594 7.17334C25.2594 7.17334 13.2989 10.1605 19.0115 16.7427" fill="#E76F00"/>
<path d="M28.0571 29.8857C28.0571 29.8857 29.045 30.6997 26.9689 31.3295C23.0212 32.5255 10.5379 32.8866 7.0701 31.3772C5.82356 30.835 8.16128 30.0824 8.89658 29.9244C9.66344 29.7581 10.1018 29.7891 10.1018 29.7891C8.71541 28.8124 1.14104 31.7067 6.25438 32.5355C20.1991 34.7969 31.6741 31.5173 28.0571 29.8857Z" fill="#5382A1"/>
<path d="M13.4436 19.2681C13.4436 19.2681 7.09397 20.7764 11.1951 21.3239C12.9267 21.5558 16.3787 21.5034 19.5941 21.2339C22.222 21.0124 24.8606 20.541 24.8606 20.541C24.8606 20.541 23.934 20.9378 23.2637 21.3956C16.8156 23.0914 4.35901 22.3025 7.9451 20.5678C10.9779 19.1018 13.4437 19.2681 13.4437 19.2681" fill="#5382A1"/>
<path d="M24.8344 25.6352C31.3893 22.229 28.3586 18.9558 26.2432 19.3969C25.7247 19.5047 25.4936 19.5982 25.4936 19.5982C25.4936 19.5982 25.6861 19.2967 26.0537 19.1662C30.2385 17.6949 33.457 23.5055 24.7027 25.8068C24.7027 25.8069 24.8042 25.7163 24.8344 25.6352Z" fill="#5382A1"/>
<path d="M20.8826 0.0374547C20.8826 0.0374547 24.5127 3.66896 17.4395 9.25287C11.7676 13.7323 16.1461 16.2863 17.4372 19.2043C14.1263 16.2172 11.6966 13.5875 13.3267 11.1401C15.7192 7.54738 22.3472 5.80558 20.8826 0.0373535" fill="#E76F00"/>
<path d="M14.0878 34.865C20.3796 35.2678 30.0413 34.6416 30.2701 31.6644C30.2701 31.6644 29.8303 32.7931 25.0703 33.6894C19.7001 34.6999 13.0769 34.582 9.14845 33.9343C9.14856 33.9343 9.95265 34.5999 14.0879 34.865" fill="#5382A1"/>
</g>
<defs>
<clipPath id="clip0">
<rect x="4.45087" width="25.896" height="35" fill="white"/>
</clipPath>
</defs>
</svg>
