<svg width="35" height="35" viewBox="0 0 35 35" fill="none" xmlns="http://www.w3.org/2000/svg">
<path d="M23.924 8.27749C23.7563 8.27749 23.6425 8.29791 23.5244 8.32561V8.34457H23.5448C23.6235 8.49624 23.7577 8.60707 23.8569 8.7427C23.9356 8.89874 24.0027 9.05478 24.0815 9.20936L24.1019 9.18749C24.239 9.09124 24.306 8.93666 24.306 8.70186C24.2477 8.63332 24.239 8.56478 24.1894 8.4977C24.131 8.39999 24.0056 8.35186 23.9269 8.27457L23.924 8.27749ZM8.41458 27.5187H7.06271C7.02469 25.3703 6.89332 23.2245 6.66896 21.0875H6.65729L4.60104 27.5187H3.57292L1.53125 21.0875H1.51667C1.35697 23.2279 1.26213 25.3726 1.23229 27.5187H0C0.0802083 24.6517 0.28 21.9625 0.597917 19.4542H2.275L4.22188 25.3808H4.23354L6.19792 19.4542H7.79479C8.14771 22.3927 8.35479 25.0833 8.41896 27.5187H8.41458ZM14.2727 21.5687C13.7215 24.551 12.9952 26.721 12.0969 28.0729C11.394 29.1171 10.624 29.6377 9.78833 29.6377C9.56521 29.6377 9.2925 29.5706 8.96292 29.4364V28.716C9.12333 28.7408 9.31292 28.7539 9.52583 28.7539C9.91667 28.7539 10.2302 28.6446 10.4694 28.4302C10.7567 28.1677 10.8996 27.8731 10.8996 27.5479C10.8996 27.3219 10.7873 26.8625 10.5642 26.1712L9.08542 21.5687H10.4125L11.4727 25.0104C11.7119 25.7921 11.8125 26.3375 11.7717 26.6481C12.355 25.0964 12.7604 23.4004 12.9894 21.5687H14.2727ZM32.2467 27.5187H28.4113V19.4542H29.7019V26.5271H32.2467V27.5187ZM27.405 27.7156L25.9233 26.9864C26.0546 26.8756 26.1815 26.756 26.2952 26.6219C26.9267 25.8839 27.2402 24.7873 27.2402 23.3362C27.2402 20.6675 26.1931 19.3317 24.0975 19.3317C23.0708 19.3317 22.2687 19.67 21.6912 20.3481C21.0642 21.0889 20.7492 22.1798 20.7492 23.6221C20.7492 25.0396 21.0263 26.0808 21.5863 26.7429C22.0967 27.3408 22.8652 27.6398 23.8948 27.6398C24.2798 27.6398 24.6327 27.5917 24.9521 27.4969L26.8844 28.6227L27.4094 27.7156H27.405ZM22.6042 25.9044C22.276 25.3794 22.1127 24.5335 22.1127 23.3727C22.1127 21.3412 22.731 20.3248 23.9648 20.3248C24.6108 20.3248 25.0877 20.5683 25.3896 21.0539C25.7163 21.5819 25.8796 22.4189 25.8796 23.5667C25.8796 25.6142 25.2612 26.6408 24.0275 26.6408C23.3785 26.6408 22.9046 26.3973 22.6013 25.9117L22.6042 25.9044ZM20.1863 25.2846C20.1863 25.97 19.9354 26.5329 19.4338 26.9704C18.9321 27.4079 18.2627 27.6267 17.4154 27.6267C16.6235 27.6267 15.8638 27.3758 15.1215 26.8756L15.4671 26.1814C16.1058 26.5023 16.6819 26.6598 17.2025 26.6598C17.6867 26.6598 18.0673 26.5533 18.3444 26.3389C18.4829 26.2345 18.5947 26.0989 18.6707 25.943C18.7468 25.7871 18.7848 25.6155 18.7819 25.4421C18.7819 24.9608 18.4465 24.5525 17.8369 24.2098C17.271 23.8992 16.1408 23.2517 16.1408 23.2517C15.5254 22.8039 15.2192 22.3242 15.2192 21.5352C15.2192 20.8789 15.4481 20.3539 15.9046 19.9529C16.364 19.5475 16.9546 19.3477 17.6838 19.3477C18.4304 19.3477 19.1129 19.546 19.7254 19.9456L19.4148 20.6398C18.9254 20.4248 18.3976 20.3107 17.8631 20.3044C17.4504 20.3044 17.131 20.4035 16.9094 20.6048C16.7969 20.698 16.7062 20.8147 16.6437 20.9467C16.5812 21.0787 16.5485 21.2229 16.5477 21.3689C16.5477 21.8473 16.889 22.2585 17.519 22.6085C18.0921 22.9221 19.25 23.5856 19.25 23.5856C19.8815 24.0304 20.195 24.5044 20.195 25.2889L20.1863 25.2846ZM33.8683 16.7504C33.0881 16.73 32.4829 16.8087 31.9769 17.0246C31.831 17.0829 31.5977 17.0829 31.5773 17.2681C31.6575 17.3454 31.6692 17.4723 31.7377 17.5802C31.8544 17.7756 32.0556 18.0367 32.2423 18.1737C32.4465 18.3342 32.6506 18.4887 32.865 18.6258C33.2442 18.8592 33.6744 18.9977 34.0463 19.2325C34.2577 19.3696 34.4735 19.5431 34.6879 19.6889C34.7944 19.7619 34.8629 19.8931 35 19.9398V19.9106C34.9329 19.8231 34.9125 19.6962 34.8469 19.5985C34.7492 19.5008 34.6515 19.4133 34.5552 19.3171C34.2689 18.9398 33.9272 18.6079 33.5417 18.3327C33.2296 18.1198 32.5471 17.8223 32.4188 17.465L32.3998 17.4446C32.6127 17.4256 32.8665 17.3483 33.0706 17.29C33.4017 17.2025 33.705 17.2214 34.0477 17.1354C34.2023 17.096 34.3583 17.0479 34.5144 16.9983V16.9108C34.3394 16.7358 34.2081 16.4981 34.0273 16.3348C33.5225 15.8936 32.9843 15.4923 32.4173 15.1346C32.111 14.9392 31.7231 14.8137 31.4008 14.6475C31.2842 14.5892 31.0888 14.56 31.0217 14.4623C30.8467 14.2494 30.7446 13.9664 30.6206 13.7127C30.3343 13.1572 30.0682 12.5915 29.8229 12.0167C29.6479 11.6346 29.5415 11.2539 29.3271 10.9039C28.3208 9.24582 27.2315 8.24103 25.5558 7.25811C25.1956 7.05395 24.764 6.96645 24.3075 6.85853C24.064 6.84686 23.8204 6.82936 23.5783 6.81916C23.4179 6.75061 23.2633 6.5654 23.1263 6.47645C22.5721 6.12645 21.1371 5.36811 20.7288 6.37145C20.4662 7.00436 21.1181 7.62853 21.3442 7.94936C21.5119 8.17249 21.7233 8.4277 21.84 8.67853C21.9085 8.8477 21.9275 9.02124 21.996 9.1977C22.1506 9.62645 22.2979 10.1048 22.5021 10.5058C22.6085 10.71 22.7252 10.9244 22.8623 11.1081C22.941 11.2146 23.0752 11.2642 23.1058 11.4392C22.9688 11.6375 22.96 11.9262 22.8813 12.1683C22.5312 13.2723 22.6683 14.6373 23.1642 15.4496C23.3202 15.6917 23.6921 16.2283 24.1894 16.0227C24.6269 15.8477 24.5306 15.2935 24.656 14.805C24.6852 14.6883 24.6663 14.611 24.726 14.5323V14.5542C24.8631 14.8283 25.0002 15.0894 25.1256 15.3635C25.426 15.8419 25.951 16.3377 26.39 16.6687C26.6233 16.8437 26.8085 17.1471 27.1002 17.255V17.2258H27.0783C27.0156 17.1412 26.9325 17.1004 26.8538 17.0319C26.6688 16.8509 26.4982 16.6558 26.3433 16.4485C25.9324 15.8871 25.5681 15.293 25.254 14.6723C25.0935 14.366 24.9594 14.0364 24.831 13.7346C24.7727 13.6179 24.7727 13.4429 24.675 13.3846C24.5292 13.5975 24.3148 13.7827 24.2083 14.0452C24.0231 14.4652 24.0042 14.9814 23.9342 15.5181C23.8948 15.5283 23.9138 15.5181 23.8948 15.5385C23.5827 15.4627 23.4762 15.1389 23.3596 14.8677C23.0679 14.175 23.0198 13.0623 23.2721 12.2646C23.3406 12.0604 23.6323 11.4158 23.5156 11.2204C23.4544 11.0352 23.2619 10.9287 23.1554 10.7785C23.0185 10.583 22.9012 10.3744 22.8054 10.1558C22.5721 9.61041 22.4554 9.00665 22.2017 8.46124C22.085 8.20895 21.8808 7.94499 21.7146 7.71311C21.5294 7.45061 21.3252 7.26541 21.1779 6.95478C21.1298 6.84832 21.0613 6.67186 21.1385 6.5552C21.159 6.47645 21.1998 6.44582 21.2756 6.42395C21.404 6.31895 21.7642 6.45603 21.891 6.51436C22.2512 6.6602 22.5546 6.79728 22.8565 7.00145C22.9935 7.0977 23.1408 7.2829 23.3158 7.33103H23.52C23.8321 7.39957 24.1835 7.35145 24.4752 7.43749C24.9929 7.60374 25.4596 7.84582 25.8781 8.10832C27.1678 8.93215 28.2168 10.0823 28.9188 11.4421C29.0354 11.6667 29.0865 11.8723 29.1929 12.1056C29.3971 12.5869 29.6494 13.0725 29.8565 13.5377C30.0606 13.9971 30.2575 14.4652 30.5506 14.8458C30.6965 15.05 31.2827 15.1564 31.5452 15.2629C31.7392 15.3504 32.041 15.4306 32.216 15.5371C32.5515 15.7412 32.8781 15.9746 33.1931 16.1992C33.3535 16.31 33.8392 16.5535 33.8683 16.7504Z" fill="#00556E"/>
</svg>
