<svg width="35" height="35" viewBox="0 0 35 35" fill="none" xmlns="http://www.w3.org/2000/svg">
<path d="M17.3518 0.0098877C8.48806 0.0098877 9.0415 3.86881 9.0415 3.86881L9.05134 7.86677H17.5099V9.06706H5.69175C5.69175 9.06706 0.0198364 8.42128 0.0198364 17.3998C0.0198364 26.3786 4.97042 26.0602 4.97042 26.0602H7.92491V21.8937C7.92491 21.8937 7.76564 16.9237 12.7965 16.9237H21.1858C21.1858 16.9237 25.8992 17.0001 25.8992 12.3505V4.66255C25.8992 4.66255 26.6151 0.0098877 17.3518 0.0098877ZM12.6878 2.69844C12.8877 2.69826 13.0856 2.73765 13.2703 2.81435C13.455 2.89106 13.6228 3.00358 13.7642 3.14547C13.9055 3.28736 14.0176 3.45584 14.094 3.64126C14.1704 3.82669 14.2096 4.02542 14.2095 4.22608C14.2096 4.42675 14.1704 4.62548 14.094 4.8109C14.0176 4.99633 13.9055 5.16481 13.7642 5.3067C13.6228 5.44859 13.455 5.56111 13.2703 5.63781C13.0856 5.71452 12.8877 5.75391 12.6878 5.75373C12.4879 5.75391 12.29 5.71452 12.1053 5.63781C11.9206 5.56111 11.7527 5.44859 11.6114 5.3067C11.4701 5.16481 11.358 4.99633 11.2816 4.8109C11.2052 4.62548 11.1659 4.42675 11.1661 4.22608C11.1659 4.02542 11.2052 3.82669 11.2816 3.64126C11.358 3.45584 11.4701 3.28736 11.6114 3.14547C11.7527 3.00358 11.9206 2.89106 12.1053 2.81435C12.29 2.73765 12.4879 2.69826 12.6878 2.69844Z" fill="url(#paint0_linear)"/>
<path d="M17.6035 34.8801C26.4672 34.8801 25.9138 31.0211 25.9138 31.0211L25.904 27.0233H17.4453V25.823H29.2634C29.2634 25.823 34.9353 26.4688 34.9353 17.49C34.9353 8.51133 29.9847 8.82977 29.9847 8.82977H27.0303V12.9961C27.0303 12.9961 27.1895 17.9661 22.1587 17.9661H13.7694C13.7694 17.9661 9.05597 17.8897 9.05597 22.5395V30.2275C9.05597 30.2275 8.34025 34.8801 17.6034 34.8801H17.6035ZM22.2675 32.1918C22.0676 32.192 21.8697 32.1526 21.685 32.0759C21.5003 31.9992 21.3325 31.8866 21.1911 31.7448C21.0498 31.6029 20.9377 31.4344 20.8613 31.249C20.7849 31.0635 20.7457 30.8648 20.7458 30.6641C20.7456 30.4635 20.7849 30.2647 20.8613 30.0793C20.9377 29.8938 21.0497 29.7253 21.1911 29.5834C21.3324 29.4415 21.5002 29.329 21.685 29.2523C21.8697 29.1756 22.0676 29.1362 22.2675 29.1364C22.4674 29.1362 22.6654 29.1756 22.8501 29.2523C23.0348 29.329 23.2026 29.4415 23.3439 29.5834C23.4852 29.7253 23.5973 29.8938 23.6737 30.0792C23.7501 30.2646 23.7894 30.4633 23.7892 30.664C23.7894 30.8647 23.7501 31.0634 23.6737 31.2488C23.5973 31.4342 23.4852 31.6027 23.3439 31.7446C23.2026 31.8865 23.0348 31.999 22.8501 32.0757C22.6654 32.1524 22.4674 32.1918 22.2675 32.1916V32.1918Z" fill="url(#paint1_linear)"/>
<defs>
<linearGradient id="paint0_linear" x1="3.37521" y1="3.14625" x2="20.7453" y2="20.2759" gradientUnits="userSpaceOnUse">
<stop stop-color="#387EB8"/>
<stop offset="1" stop-color="#366994"/>
</linearGradient>
<linearGradient id="paint1_linear" x1="13.9958" y1="14.1895" x2="32.6459" y2="31.7512" gradientUnits="userSpaceOnUse">
<stop stop-color="#FFE052"/>
<stop offset="1" stop-color="#FFC331"/>
</linearGradient>
</defs>
</svg>
