<svg width="35" height="35" viewBox="0 0 35 35" fill="none" xmlns="http://www.w3.org/2000/svg">
<path d="M0 17.5V35H35V0H0V17.5Z" fill="#007ACC"/>
<path d="M7.73978 17.6162L7.72871 19.0494H12.2842V31.9939H15.5066V19.0494H20.0621V17.6439C20.0621 16.866 20.0454 16.216 20.0233 16.1994C20.0066 16.1772 17.2344 16.166 13.8733 16.1716L7.7566 16.1883L7.73992 17.616L7.73978 17.6162Z" fill="white"/>
<path d="M28.2416 16.1476C29.1304 16.3699 29.8082 16.7642 30.4304 17.4087C30.7527 17.7532 31.2304 18.381 31.2693 18.531C31.2803 18.5754 29.7582 19.5977 28.836 20.1698C28.8027 20.1921 28.6692 20.0476 28.5192 19.8253C28.0693 19.1699 27.5971 18.8865 26.8748 18.8366C25.8139 18.7642 25.1304 19.3199 25.136 20.2475C25.136 20.5198 25.1748 20.6809 25.286 20.9032C25.5194 21.3865 25.9526 21.6754 27.3138 22.2642C29.8193 23.3421 30.8915 24.0532 31.5582 25.0642C32.3027 26.1922 32.4693 27.9921 31.9637 29.331C31.4083 30.7865 30.0305 31.7755 28.0915 32.1032C27.4915 32.2087 26.0694 32.1921 25.4249 32.0754C24.0194 31.8254 22.686 31.131 21.8638 30.2199C21.5415 29.8643 20.9137 28.9365 20.9527 28.8698C20.9694 28.8477 21.1137 28.7588 21.2748 28.6643C21.4304 28.5754 22.0194 28.2364 22.5748 27.9143L23.5804 27.3309L23.7915 27.6421C24.086 28.092 24.7304 28.7087 25.1193 28.9142C26.2359 29.5032 27.7693 29.4198 28.5249 28.742C28.8471 28.4476 28.9804 28.142 28.9804 27.692C28.9804 27.2865 28.9304 27.1087 28.7193 26.8033C28.4472 26.4143 27.8916 26.0865 26.3137 25.4033C24.5082 24.6254 23.7304 24.1421 23.0193 23.3753C22.6082 22.931 22.2192 22.2198 22.0582 21.6253C21.9249 21.131 21.8914 19.892 21.9971 19.392C22.3694 17.6475 23.686 16.431 25.5859 16.0698C26.2025 15.9532 27.6359 15.9976 28.2416 16.1477V16.1476Z" fill="white"/>
</svg>
