<svg width="36" height="36" viewBox="0 0 36 36" fill="none" xmlns="http://www.w3.org/2000/svg">
<path d="M32.1429 0H3.85714C1.72768 0 0 1.69907 0 3.79327V31.6105C0 33.7047 1.72768 35.4038 3.85714 35.4038H32.1429C34.2723 35.4038 36 33.7047 36 31.6105V3.79327C36 1.69907 34.2723 0 32.1429 0ZM22.283 30.3224C21.608 30.441 21.3589 30.03 21.3589 29.6902C21.3589 29.2635 21.375 27.0823 21.375 25.32C21.375 24.0872 20.9571 23.3049 20.467 22.8939C23.4402 22.5699 26.5741 22.1669 26.5741 17.1171C26.5741 15.6788 26.0518 14.9597 25.2 14.0351C25.3366 13.6953 25.7946 12.2965 25.0634 10.4789C23.9464 10.1391 21.3911 11.8935 21.3911 11.8935C20.3304 11.6011 19.1813 11.4509 18.0482 11.4509C16.9152 11.4509 15.7661 11.6011 14.7054 11.8935C14.7054 11.8935 12.15 10.1391 11.033 10.4789C10.3018 12.2886 10.7518 13.6874 10.8964 14.0351C10.0446 14.9597 9.64286 15.6788 9.64286 17.1171C9.64286 22.1432 12.6402 22.5699 15.6134 22.8939C15.2277 23.2337 14.8821 23.8185 14.7616 24.6562C13.9982 24.996 12.0455 25.5808 10.8804 23.5578C10.1491 22.3091 8.83125 22.2064 8.83125 22.2064C7.52946 22.1906 8.74286 23.0125 8.74286 23.0125C9.61071 23.4076 10.2214 24.9249 10.2214 24.9249C11.0009 27.272 14.7295 26.4817 14.7295 26.4817C14.7295 27.5802 14.7455 29.3662 14.7455 29.6902C14.7455 30.03 14.5045 30.441 13.8214 30.3224C8.51786 28.5759 4.80536 23.6131 4.80536 17.8125C4.80536 10.5579 10.4464 5.04978 17.8232 5.04978C25.2 5.04978 31.1786 10.5579 31.1786 17.8125C31.1866 23.6131 27.5866 28.5838 22.283 30.3224ZM14.4 25.4939C14.2473 25.5255 14.1027 25.4623 14.0866 25.3596C14.0705 25.241 14.175 25.1383 14.3277 25.1067C14.4804 25.0909 14.625 25.1541 14.6411 25.2568C14.6652 25.3596 14.5607 25.4623 14.4 25.4939ZM13.6366 25.4228C13.6366 25.5255 13.5161 25.6124 13.3554 25.6124C13.1786 25.6282 13.058 25.5413 13.058 25.4228C13.058 25.32 13.1786 25.2331 13.3393 25.2331C13.492 25.2173 13.6366 25.3042 13.6366 25.4228ZM12.5357 25.3359C12.5036 25.4386 12.3429 25.486 12.2062 25.4386C12.0536 25.407 11.9491 25.2884 11.9813 25.1857C12.0134 25.083 12.1741 25.0356 12.3107 25.0672C12.4714 25.1146 12.5759 25.2331 12.5357 25.3359ZM11.5473 24.9091C11.475 24.996 11.3223 24.9802 11.2018 24.8617C11.0812 24.759 11.0491 24.6088 11.1295 24.5377C11.2018 24.4508 11.3545 24.4666 11.475 24.5851C11.5795 24.6878 11.6196 24.8459 11.5473 24.9091ZM10.8161 24.19C10.7438 24.2374 10.6071 24.19 10.5187 24.0714C10.4304 23.9529 10.4304 23.8185 10.5187 23.7632C10.6071 23.6921 10.7438 23.7474 10.8161 23.866C10.9045 23.9845 10.9045 24.1267 10.8161 24.19V24.19ZM10.2938 23.4234C10.2214 23.4945 10.1009 23.455 10.0125 23.376C9.92411 23.2733 9.90804 23.1547 9.98036 23.0994C10.0527 23.0283 10.1732 23.0678 10.2616 23.1468C10.35 23.2496 10.3661 23.3681 10.2938 23.4234ZM9.75536 22.8386C9.72321 22.9097 9.61875 22.9255 9.53036 22.8702C9.42589 22.8228 9.37768 22.7359 9.40982 22.6648C9.44196 22.6173 9.53036 22.5936 9.63482 22.6331C9.73929 22.6885 9.7875 22.7754 9.75536 22.8386Z" fill="#0F0E12"/>
</svg>
