<svg width="36" height="36" viewBox="0 0 36 36" fill="none" xmlns="http://www.w3.org/2000/svg">
<path d="M17.9952 11.7988C14.69 11.7988 11.9927 14.4514 11.9927 17.7019C11.9927 20.9524 14.69 23.6051 17.9952 23.6051C21.3003 23.6051 23.9976 20.9524 23.9976 17.7019C23.9976 14.4514 21.3003 11.7988 17.9952 11.7988ZM35.998 17.7019C35.998 15.2574 36.0205 12.835 35.8809 10.3949C35.7413 7.56071 35.0839 5.04534 32.9765 2.97282C30.8646 0.895867 28.3114 0.25374 25.4295 0.116457C22.9439 -0.0208252 20.4808 0.00131722 17.9997 0.00131722C15.514 0.00131722 13.0509 -0.0208252 10.5698 0.116457C7.68789 0.25374 5.13021 0.900296 3.02282 2.97282C0.910937 5.04977 0.258008 7.56071 0.118416 10.3949C-0.0211755 12.8394 0.00133938 15.2618 0.00133938 17.7019C0.00133938 20.142 -0.0211755 22.5688 0.118416 25.0089C0.258008 27.8431 0.91544 30.3585 3.02282 32.431C5.13471 34.5079 7.68789 35.1501 10.5698 35.2874C13.0554 35.4246 15.5185 35.4025 17.9997 35.4025C20.4853 35.4025 22.9484 35.4246 25.4295 35.2874C28.3114 35.1501 30.8691 34.5035 32.9765 32.431C35.0884 30.354 35.7413 27.8431 35.8809 25.0089C36.025 22.5688 35.998 20.1464 35.998 17.7019V17.7019ZM17.9952 26.7847C12.8843 26.7847 8.75959 22.7282 8.75959 17.7019C8.75959 12.6756 12.8843 8.61912 17.9952 8.61912C23.106 8.61912 27.2307 12.6756 27.2307 17.7019C27.2307 22.7282 23.106 26.7847 17.9952 26.7847ZM27.609 10.3684C26.4157 10.3684 25.4521 9.42067 25.4521 8.24712C25.4521 7.07358 26.4157 6.12589 27.609 6.12589C28.8023 6.12589 29.7659 7.07358 29.7659 8.24712C29.7663 8.52579 29.7107 8.80178 29.6024 9.0593C29.4942 9.31682 29.3353 9.5508 29.1349 9.74785C28.9346 9.94489 28.6967 10.1011 28.4348 10.2076C28.173 10.3141 27.8923 10.3687 27.609 10.3684V10.3684Z" fill="#0F0E12"/>
</svg>
