<svg width="36" height="36" viewBox="0 0 36 36" fill="none" xmlns="http://www.w3.org/2000/svg">
<path d="M7.05829 0.00878906C3.18047 0.00878906 0.00671387 3.18248 0.00671387 7.06036V28.9426C0.00671387 32.8204 3.1804 35.9931 7.05829 35.9931H28.9406C32.8184 35.9931 35.991 32.8205 35.991 28.9426V7.06036C35.991 3.18255 32.8184 0.00878906 28.9406 0.00878906H7.05829ZM8.83186 5.94692C10.6912 5.94692 11.8365 7.16753 11.8718 8.77202C11.8718 10.3411 10.6911 11.596 8.7959 11.596H8.76101C6.93707 11.596 5.75818 10.3411 5.75818 8.77202C5.75818 7.16757 6.97275 5.94692 8.83183 5.94692H8.83186ZM24.8547 13.4461C28.4306 13.4461 31.1112 15.7833 31.1112 20.8058V30.1819H25.6769V21.4344C25.6769 19.2362 24.8904 17.7366 22.9237 17.7366C21.4224 17.7366 20.5275 18.7474 20.1346 19.7238C19.9911 20.0732 19.9558 20.5611 19.9558 21.0498V30.1819H14.5215C14.5215 30.1819 14.5928 15.3639 14.5215 13.8295H19.9569V16.1452C20.6791 15.031 21.9708 13.446 24.8547 13.446V13.4461ZM6.07873 13.8307H11.513V30.182H6.07873V13.8307V13.8307Z" fill="#0F0E12"/>
</svg>
