<svg width="36" height="36" viewBox="0 0 36 36" fill="none" xmlns="http://www.w3.org/2000/svg">
<path d="M30 11.2969C29.125 11.6875 28.1797 11.9531 27.1641 12.0938C28.2266 11.4688 28.9531 10.5547 29.3438 9.35156C28.3281 9.94531 27.2812 10.3437 26.2031 10.5469C25.25 9.51562 24.0547 9 22.6172 9C21.2578 9 20.0977 9.48047 19.1367 10.4414C18.1758 11.4023 17.6953 12.5625 17.6953 13.9219C17.6953 14.375 17.7344 14.75 17.8125 15.0469C15.7969 14.9375 13.9063 14.4297 12.1406 13.5234C10.375 12.6172 8.875 11.4062 7.64062 9.89062C7.1875 10.6719 6.96094 11.5 6.96094 12.375C6.96094 14.1562 7.67187 15.5234 9.09375 16.4766C8.35937 16.4609 7.57812 16.2578 6.75 15.8672V15.9141C6.75 17.0859 7.14063 18.1289 7.92188 19.043C8.70312 19.957 9.66406 20.5234 10.8047 20.7422C10.3516 20.8672 9.95313 20.9297 9.60938 20.9297C9.40625 20.9297 9.10156 20.8984 8.69531 20.8359C9.02344 21.8203 9.60547 22.6328 10.4414 23.2734C11.2773 23.9141 12.2266 24.2422 13.2891 24.2578C11.4766 25.6641 9.4375 26.3672 7.17188 26.3672C6.76562 26.3672 6.375 26.3438 6 26.2969C8.3125 27.7656 10.8281 28.5 13.5469 28.5C15.2969 28.5 16.9375 28.2227 18.4688 27.668C20 27.1133 21.3125 26.3711 22.4062 25.4414C23.5 24.5117 24.4414 23.4414 25.2305 22.2305C26.0195 21.0195 26.6055 19.7539 26.9883 18.4336C27.3711 17.1133 27.5625 15.7969 27.5625 14.4844C27.5625 14.2031 27.5547 13.9922 27.5391 13.8516C28.5234 13.1484 29.3438 12.2969 30 11.2969ZM36 6.75V29.25C36 31.1094 35.3398 32.6992 34.0195 34.0195C32.6992 35.3398 31.1094 36 29.25 36H6.75C4.89062 36 3.30078 35.3398 1.98047 34.0195C0.660156 32.6992 0 31.1094 0 29.25V6.75C0 4.89062 0.660156 3.30078 1.98047 1.98047C3.30078 0.660156 4.89062 0 6.75 0H29.25C31.1094 0 32.6992 0.660156 34.0195 1.98047C35.3398 3.30078 36 4.89062 36 6.75Z" fill="#0F0E12"/>
</svg>
