<svg width="62" height="62" viewBox="0 0 62 62" fill="none" xmlns="http://www.w3.org/2000/svg">
<circle cx="31" cy="31" r="31" fill="url(#paint0_linear)"/>
<mask id="mask0" mask-type="alpha" maskUnits="userSpaceOnUse" x="0" y="0" width="62" height="62">
<circle cx="31" cy="31" r="31" fill="url(#paint1_linear)"/>
</mask>
<g mask="url(#mask0)">
<path d="M62.3997 4.5C62.3997 18.5833 58.483 30.5 44.3997 30.5C30.3164 30.5 8 17 6.5 5.5C3.5 -7.5 22.8164 -21 36.8997 -21C50.983 -21 62.3997 -9.58326 62.3997 4.5Z" fill="url(#paint2_linear)" fill-opacity="0.28"/>
</g>
<g clip-path="url(#clip0)">
<path d="M28.4 34.0833V33.8896V33.6958V29.2396V29.0458H28.4176C28.4067 29.1099 28.4 29.1745 28.4 29.2396C28.4 27.9805 30.3954 26.8877 33.3259 26.3333H17.8641C16.8349 26.3333 16 27.1678 16 28.1975V34.2854C16 35.3156 16.8349 36.15 17.8641 36.15H28.4V34.0833Z" fill="#424A60"/>
<path d="M44.1025 26.3333H17.8641C16.8349 26.3333 16 25.4984 16 24.4692V18.3808C16 17.3516 16.8349 16.5167 17.8641 16.5167H44.102C45.1317 16.5167 45.9667 17.3516 45.9667 18.3808V24.4687C45.9667 25.4984 45.1317 26.3333 44.1025 26.3333Z" fill="#556080"/>
<path d="M44.1025 45.8H17.8641C16.8349 45.8 16 44.9495 16 43.901V37.6989C16 36.6505 16.8349 35.8 17.8641 35.8H44.102C45.1317 35.8 45.9667 36.6505 45.9667 37.6989V43.9005C45.9667 44.9495 45.1317 45.8 44.1025 45.8Z" fill="#556080"/>
<path d="M44.1025 35.8167H17.8641C16.8349 35.8167 16 34.9817 16 33.9525V27.8641C16 26.8349 16.8349 26 17.8641 26H44.102C45.1317 26 45.9667 26.8349 45.9667 27.8641V33.952C45.9667 34.9817 45.1317 35.8167 44.1025 35.8167Z" fill="#424A60"/>
<path d="M20.9083 23.2333C21.907 23.2333 22.7167 22.4237 22.7167 21.425C22.7167 20.4263 21.907 19.6167 20.9083 19.6167C19.9096 19.6167 19.1 20.4263 19.1 21.425C19.1 22.4237 19.9096 23.2333 20.9083 23.2333Z" fill="#7383BF"/>
<path d="M41.3167 21.1667C41.602 21.1667 41.8333 20.9353 41.8333 20.65C41.8333 20.3647 41.602 20.1333 41.3167 20.1333C41.0313 20.1333 40.8 20.3647 40.8 20.65C40.8 20.9353 41.0313 21.1667 41.3167 21.1667Z" fill="#7383BF"/>
<path d="M39.25 21.1667C39.5354 21.1667 39.7667 20.9353 39.7667 20.65C39.7667 20.3647 39.5354 20.1333 39.25 20.1333C38.9647 20.1333 38.7333 20.3647 38.7333 20.65C38.7333 20.9353 38.9647 21.1667 39.25 21.1667Z" fill="#7383BF"/>
<path d="M42.35 22.7167C42.6353 22.7167 42.8667 22.4854 42.8667 22.2C42.8667 21.9147 42.6353 21.6833 42.35 21.6833C42.0646 21.6833 41.8333 21.9147 41.8333 22.2C41.8333 22.4854 42.0646 22.7167 42.35 22.7167Z" fill="#7383BF"/>
<path d="M40.2833 22.7167C40.5687 22.7167 40.8 22.4854 40.8 22.2C40.8 21.9147 40.5687 21.6833 40.2833 21.6833C39.998 21.6833 39.7667 21.9147 39.7667 22.2C39.7667 22.4854 39.998 22.7167 40.2833 22.7167Z" fill="#7383BF"/>
<path d="M37.1833 21.1667C37.4687 21.1667 37.7 20.9353 37.7 20.65C37.7 20.3647 37.4687 20.1333 37.1833 20.1333C36.898 20.1333 36.6667 20.3647 36.6667 20.65C36.6667 20.9353 36.898 21.1667 37.1833 21.1667Z" fill="#7383BF"/>
<path d="M38.2167 22.7167C38.502 22.7167 38.7333 22.4854 38.7333 22.2C38.7333 21.9147 38.502 21.6833 38.2167 21.6833C37.9313 21.6833 37.7 21.9147 37.7 22.2C37.7 22.4854 37.9313 22.7167 38.2167 22.7167Z" fill="#7383BF"/>
<path d="M35.1167 21.1667C35.402 21.1667 35.6333 20.9353 35.6333 20.65C35.6333 20.3647 35.402 20.1333 35.1167 20.1333C34.8313 20.1333 34.6 20.3647 34.6 20.65C34.6 20.9353 34.8313 21.1667 35.1167 21.1667Z" fill="#7383BF"/>
<path d="M36.15 22.7167C36.4353 22.7167 36.6667 22.4854 36.6667 22.2C36.6667 21.9147 36.4353 21.6833 36.15 21.6833C35.8647 21.6833 35.6333 21.9147 35.6333 22.2C35.6333 22.4854 35.8647 22.7167 36.15 22.7167Z" fill="#7383BF"/>
<path d="M33.05 21.1667C33.3353 21.1667 33.5667 20.9353 33.5667 20.65C33.5667 20.3647 33.3353 20.1333 33.05 20.1333C32.7647 20.1333 32.5333 20.3647 32.5333 20.65C32.5333 20.9353 32.7647 21.1667 33.05 21.1667Z" fill="#7383BF"/>
<path d="M34.0833 22.7167C34.3687 22.7167 34.6 22.4854 34.6 22.2C34.6 21.9147 34.3687 21.6833 34.0833 21.6833C33.798 21.6833 33.5667 21.9147 33.5667 22.2C33.5667 22.4854 33.798 22.7167 34.0833 22.7167Z" fill="#7383BF"/>
<path d="M20.9083 33.05C21.907 33.05 22.7167 32.2404 22.7167 31.2417C22.7167 30.243 21.907 29.4333 20.9083 29.4333C19.9096 29.4333 19.1 30.243 19.1 31.2417C19.1 32.2404 19.9096 33.05 20.9083 33.05Z" fill="#7383BF"/>
<path d="M20.9083 42.8667C21.907 42.8667 22.7167 42.057 22.7167 41.0583C22.7167 40.0596 21.907 39.25 20.9083 39.25C19.9096 39.25 19.1 40.0596 19.1 41.0583C19.1 42.057 19.9096 42.8667 20.9083 42.8667Z" fill="#7383BF"/>
</g>
<defs>
<linearGradient id="paint0_linear" x1="9.5" y1="9.5" x2="50.5" y2="55.5" gradientUnits="userSpaceOnUse">
<stop stop-color="#AAA1F5"/>
<stop offset="1" stop-color="#D6C5FC"/>
</linearGradient>
<linearGradient id="paint1_linear" x1="19" y1="3.3071e-07" x2="38" y2="62" gradientUnits="userSpaceOnUse">
<stop stop-color="#9EBFFB"/>
<stop offset="1" stop-color="#A8E0F2"/>
</linearGradient>
<linearGradient id="paint2_linear" x1="36.8997" y1="-21" x2="36.8997" y2="30" gradientUnits="userSpaceOnUse">
<stop stop-color="#9793E4"/>
<stop offset="1" stop-color="#9988ED"/>
</linearGradient>
<clipPath id="clip0">
<rect x="16" y="16" width="31" height="31" fill="white"/>
</clipPath>
</defs>
</svg>
