<svg width="62" height="62" viewBox="0 0 62 62" fill="none" xmlns="http://www.w3.org/2000/svg">
<circle cx="31" cy="31" r="31" fill="url(#paint0_linear)"/>
<mask id="mask0" mask-type="alpha" maskUnits="userSpaceOnUse" x="0" y="0" width="62" height="62">
<circle cx="31" cy="31" r="31" fill="url(#paint1_linear)"/>
</mask>
<g mask="url(#mask0)">
<path d="M82 30.5C82 44.5833 70.5833 56 56.5 56C42.4167 56 36.5 49 32.5 38.5C28.5 28 35.5 7.00001 56.5 5C77.5 2.99999 82 16.4167 82 30.5Z" fill="url(#paint2_linear)" fill-opacity="0.28"/>
</g>
<path d="M21 41.9828V47.1105C21 48.1541 21.8459 49 22.8895 49H39.5242C40.5679 49 41.4137 48.1541 41.4137 47.1105V41.9828H21Z" fill="#ECF0F1"/>
<path d="M39.5251 12H22.8898C21.8468 12 21.0009 12.8459 21.0009 13.8895V41.9827H41.4147V33.0383V18.3793V13.8895C41.4147 12.8459 40.5688 12 39.5251 12Z" fill="#38454F"/>
<path d="M31.7926 46.4483H30.6214C30.2399 46.4483 29.9312 46.1395 29.9312 45.7581V44.5869C29.9312 44.2054 30.2399 43.8967 30.6214 43.8967H31.7926C32.1741 43.8967 32.4828 44.2055 32.4828 44.5869V45.7581C32.4828 46.1395 32.1741 46.4483 31.7926 46.4483Z" fill="#BDC3C7"/>
<path d="M26.1035 16.4655C26.4563 16.4655 26.7414 16.1803 26.7414 15.8275C26.7414 15.4747 26.4563 15.1896 26.1035 15.1896H21V16.4654H26.1035V16.4655Z" fill="#263138"/>
<defs>
<linearGradient id="paint0_linear" x1="19" y1="3.3071e-07" x2="38" y2="62" gradientUnits="userSpaceOnUse">
<stop stop-color="#9EBFFB"/>
<stop offset="1" stop-color="#A8E0F2"/>
</linearGradient>
<linearGradient id="paint1_linear" x1="19" y1="3.3071e-07" x2="38" y2="62" gradientUnits="userSpaceOnUse">
<stop stop-color="#9EBFFB"/>
<stop offset="1" stop-color="#A8E0F2"/>
</linearGradient>
<linearGradient id="paint2_linear" x1="56.5" y1="5" x2="56.5" y2="56" gradientUnits="userSpaceOnUse">
<stop stop-color="#6191BF"/>
<stop offset="1" stop-color="#66C3E2"/>
</linearGradient>
</defs>
</svg>
