<svg width="20" height="20" viewBox="0 0 20 20" fill="none" xmlns="http://www.w3.org/2000/svg">
<path fill-rule="evenodd" clip-rule="evenodd" d="M10.3117 2C5.72083 2 2 5.72083 2 10.3117C2 13.9833 4.38083 17.0992 7.68417 18.1992C8.1 18.2742 8.25 18.0183 8.25 17.7983C8.25 17.6008 8.24333 17.0775 8.24083 16.385C5.92833 16.8867 5.44 15.27 5.44 15.27C5.06333 14.31 4.5175 14.0542 4.5175 14.0542C3.76333 13.5383 4.575 13.55 4.575 13.55C5.41 13.6083 5.8475 14.4067 5.8475 14.4067C6.58917 15.6767 7.79417 15.31 8.26583 15.0975C8.34167 14.56 8.55833 14.1933 8.795 13.9858C6.95 13.7767 5.01 13.0633 5.01 9.8775C5.01 8.97167 5.33417 8.22833 5.86333 7.64833C5.77917 7.4375 5.49167 6.59167 5.94583 5.44833C5.94583 5.44833 6.64333 5.22417 8.23083 6.29917C8.90883 6.11473 9.6082 6.02058 10.3108 6.01917C11.0135 6.02031 11.7129 6.11446 12.3908 6.29917C13.9792 5.22333 14.6758 5.44833 14.6758 5.44833C15.13 6.59167 14.845 7.4375 14.7583 7.64833C15.2917 8.22833 15.6117 8.97083 15.6117 9.8775C15.6117 13.0717 13.67 13.7733 11.8183 13.9792C12.1142 14.2358 12.3808 14.7425 12.3808 15.5175C12.3808 16.6292 12.3708 17.5258 12.3708 17.7983C12.3708 18.0208 12.5192 18.2792 12.9433 18.1975C16.245 17.0958 18.6233 13.9825 18.6233 10.3117C18.6233 5.72083 14.9025 2 10.3117 2Z" fill="#0F0E12"/>
</svg>
