<svg width="18" height="18" viewBox="0 0 18 18" fill="none" xmlns="http://www.w3.org/2000/svg">
<path d="M6.34874 8.4698C7.19849 7.62005 8.68049 7.62005 9.53024 8.4698L10.0605 9.00005L11.121 7.93955L10.5907 7.4093C9.88349 6.7013 8.94149 6.31055 7.93949 6.31055C6.93749 6.31055 5.99549 6.7013 5.28824 7.4093L3.69674 9.00005C2.99496 9.70408 2.60089 10.6576 2.60089 11.6517C2.60089 12.6457 2.99496 13.5993 3.69674 14.3033C4.04464 14.6517 4.45796 14.9279 4.91295 15.1161C5.36794 15.3043 5.85562 15.4007 6.34799 15.3998C6.84048 15.4008 7.32832 15.3045 7.78345 15.1163C8.23858 14.9281 8.65202 14.6518 8.99999 14.3033L9.53024 13.773L8.46974 12.7125L7.93949 13.2428C7.51684 13.6636 6.94474 13.8998 6.34836 13.8998C5.75198 13.8998 5.17988 13.6636 4.75724 13.2428C4.33611 12.8203 4.09964 12.2482 4.09964 11.6517C4.09964 11.0552 4.33611 10.483 4.75724 10.0605L6.34874 8.4698Z" fill="white"/>
<path d="M9 3.69681L8.46975 4.22706L9.53025 5.28756L10.0605 4.75731C10.4831 4.33655 11.0552 4.10033 11.6516 4.10033C12.248 4.10033 12.8201 4.33655 13.2427 4.75731C13.6639 5.17976 13.9003 5.75193 13.9003 6.34843C13.9003 6.94493 13.6639 7.5171 13.2427 7.93956L11.6512 9.53031C10.8015 10.3801 9.3195 10.3801 8.46975 9.53031L7.9395 9.00006L6.879 10.0606L7.40925 10.5908C8.1165 11.2988 9.0585 11.6896 10.0605 11.6896C11.0625 11.6896 12.0045 11.2988 12.7117 10.5908L14.3032 9.00006C15.005 8.29602 15.3991 7.34249 15.3991 6.34843C15.3991 5.35437 15.005 4.40084 14.3032 3.69681C13.5994 2.99466 12.6458 2.60034 11.6516 2.60034C10.6574 2.60034 9.70384 2.99466 9 3.69681Z" fill="white"/>
</svg>
