<svg width="364" height="393" viewBox="0 0 364 393" fill="none" xmlns="http://www.w3.org/2000/svg">
<mask id="mask0" mask-type="alpha" maskUnits="userSpaceOnUse" x="0" y="0" width="364" height="393">
<rect width="364" height="393" fill="#C4C4C4"/>
</mask>
<g mask="url(#mask0)">
<g clip-path="url(#clip0)">
<path d="M63.6371 300.544L59.0915 282.612C51.0314 279.196 42.785 276.236 34.3917 273.749L33.8177 282.083L31.4904 272.901C21.0813 269.928 14 268.619 14 268.619C14 268.619 23.5652 304.999 43.6275 332.812L67.0045 336.919L48.8436 339.538C51.3683 342.576 54.0815 345.452 56.9672 348.149C86.1522 375.244 118.659 387.675 129.573 375.915C140.487 364.155 125.675 332.657 96.4901 305.562C87.4424 297.162 76.0767 290.421 64.6996 285.116L63.6371 300.544Z" fill="#E6E6E6"/>
<path d="M327.67 124.996L343.674 115.717C344.756 107.029 345.347 98.2869 345.444 89.5325L337.271 91.2606L345.465 86.5098C345.478 75.6835 344.801 68.5135 344.801 68.5135C344.801 68.5135 312.427 87.6686 291.163 114.577L293.606 138.188L286.12 121.435C283.889 124.695 281.865 128.091 280.061 131.605C261.982 167.093 258.916 201.763 273.212 209.044C287.507 216.324 313.751 193.458 331.829 157.971C337.434 146.97 340.808 134.192 342.799 121.797L327.67 124.996Z" fill="#E6E6E6"/>
<path d="M279.111 41.6963V354.757C279.11 361.306 276.508 367.587 271.877 372.218C267.247 376.85 260.967 379.452 254.419 379.453H132.783C126.233 379.454 119.951 376.853 115.318 372.222C110.686 367.59 108.082 361.308 108.08 354.757V41.6963C108.082 35.1453 110.686 28.8632 115.318 24.2318C119.951 19.6005 126.233 16.9992 132.783 17H147.538C146.813 18.7821 146.538 20.7149 146.735 22.6285C146.932 24.5421 147.596 26.378 148.669 27.9748C149.742 29.5715 151.19 30.8803 152.887 31.786C154.584 32.6917 156.478 33.1666 158.401 33.169H227.75C229.674 33.1666 231.567 32.6917 233.264 31.786C234.961 30.8803 236.409 29.5716 237.482 27.9748C238.555 26.378 239.219 24.5422 239.416 22.6285C239.614 20.7149 239.338 18.7821 238.613 17H254.419C260.967 17.0013 267.247 19.6037 271.877 24.2349C276.508 28.866 279.11 35.1469 279.111 41.6963V41.6963Z" fill="#3F3D56"/>
<path d="M176.457 146.661C176.456 144.516 177.02 142.409 178.093 140.552C179.165 138.695 180.707 137.153 182.565 136.081C180.708 135.008 178.601 134.443 176.456 134.442C174.311 134.442 172.204 135.006 170.347 136.078C168.489 137.151 166.947 138.693 165.874 140.551C164.802 142.408 164.237 144.516 164.237 146.661C164.237 148.806 164.802 150.913 165.874 152.771C166.947 154.628 168.489 156.171 170.347 157.243C172.204 158.315 174.311 158.88 176.456 158.879C178.601 158.879 180.708 158.314 182.565 157.24C180.707 156.169 179.165 154.627 178.093 152.77C177.02 150.912 176.456 148.805 176.457 146.661V146.661Z" fill="white"/>
<path d="M191.814 146.661C191.813 144.516 192.378 142.409 193.45 140.552C194.522 138.695 196.065 137.153 197.922 136.081C196.065 135.008 193.958 134.443 191.814 134.442C189.669 134.442 187.562 135.006 185.704 136.078C183.847 137.151 182.304 138.693 181.232 140.551C180.159 142.408 179.595 144.516 179.595 146.661C179.595 148.806 180.159 150.913 181.232 152.771C182.304 154.628 183.847 156.171 185.704 157.243C187.562 158.315 189.669 158.88 191.814 158.879C193.958 158.879 196.065 158.314 197.922 157.24C196.065 156.169 194.522 154.627 193.45 152.77C192.378 150.912 191.813 148.805 191.814 146.661V146.661Z" fill="white"/>
<path d="M206.823 158.879C213.569 158.879 219.039 153.409 219.039 146.661C219.039 139.913 213.569 134.442 206.823 134.442C200.076 134.442 194.606 139.913 194.606 146.661C194.606 153.409 200.076 158.879 206.823 158.879Z" fill="#F05D7A"/>
<path d="M248.249 226.625H139.052V227.648H248.249V226.625Z" fill="white"/>
<path d="M142.501 220.239C144.405 220.239 145.949 218.694 145.949 216.79C145.949 214.885 144.405 213.341 142.501 213.341C140.596 213.341 139.053 214.885 139.053 216.79C139.053 218.694 140.596 220.239 142.501 220.239Z" fill="#F05D7A"/>
<path d="M248.249 261.115H139.052V262.137H248.249V261.115Z" fill="white"/>
<path d="M142.501 254.728C144.405 254.728 145.949 253.184 145.949 251.279C145.949 249.374 144.405 247.83 142.501 247.83C140.596 247.83 139.053 249.374 139.053 251.279C139.053 253.184 140.596 254.728 142.501 254.728Z" fill="#F05D7A"/>
<path d="M227.238 184.823H156.04C155.363 184.823 154.713 184.553 154.234 184.074C153.754 183.594 153.485 182.944 153.484 182.266V111.055C153.485 110.377 153.754 109.727 154.234 109.248C154.713 108.769 155.363 108.499 156.04 108.498H227.238C227.916 108.499 228.566 108.769 229.045 109.248C229.524 109.727 229.794 110.377 229.795 111.055V182.266C229.794 182.944 229.524 183.594 229.045 184.074C228.566 184.553 227.916 184.823 227.238 184.823V184.823ZM156.04 109.521C155.634 109.522 155.244 109.683 154.956 109.971C154.669 110.259 154.507 110.649 154.506 111.055V182.266C154.507 182.673 154.669 183.063 154.956 183.351C155.244 183.638 155.634 183.8 156.04 183.801H227.238C227.645 183.8 228.035 183.638 228.323 183.351C228.61 183.063 228.772 182.673 228.772 182.266V111.055C228.772 110.649 228.61 110.259 228.323 109.971C228.035 109.683 227.645 109.522 227.238 109.521H156.04Z" fill="white"/>
<path d="M246.204 284.044H211.789C210.659 284.044 209.743 284.96 209.743 286.09V298.094C209.743 299.223 210.659 300.139 211.789 300.139H246.204C247.334 300.139 248.25 299.223 248.25 298.094V286.09C248.25 284.96 247.334 284.044 246.204 284.044Z" fill="#F05D7A"/>
</g>
</g>
<defs>
<clipPath id="clip0">
<rect x="14" y="17" width="407" height="364" fill="white"/>
</clipPath>
</defs>
</svg>
