<svg width="318" height="408" viewBox="0 0 318 408" fill="none" xmlns="http://www.w3.org/2000/svg">
<mask id="mask0" mask-type="alpha" maskUnits="userSpaceOnUse" x="0" y="0" width="318" height="408">
<rect width="318" height="408" fill="#C4C4C4"/>
</mask>
<g mask="url(#mask0)">
<path d="M48.3349 120.486V361.394H271.164V120.486H48.3349ZM159.75 137.877C158.233 137.877 156.751 137.427 155.491 136.584C154.23 135.741 153.247 134.542 152.667 133.141C152.087 131.739 151.935 130.196 152.231 128.708C152.527 127.219 153.257 125.852 154.329 124.779C155.401 123.706 156.767 122.976 158.254 122.68C159.741 122.384 161.283 122.536 162.683 123.116C164.084 123.697 165.281 124.68 166.124 125.942C166.966 127.204 167.416 128.687 167.416 130.204C167.416 132.239 166.608 134.191 165.17 135.63C163.733 137.068 161.783 137.877 159.75 137.877V137.877Z" fill="#3F3D56"/>
<path d="M190.159 170.867H73.1221C72.1733 170.867 71.2633 170.49 70.5924 169.819C69.9215 169.147 69.5446 168.236 69.5446 167.287C69.5446 166.337 69.9215 165.427 70.5924 164.755C71.2633 164.084 72.1733 163.707 73.1221 163.707H190.159C191.107 163.707 192.017 164.084 192.688 164.755C193.359 165.427 193.736 166.337 193.736 167.287C193.736 168.236 193.359 169.147 192.688 169.819C192.017 170.49 191.107 170.867 190.159 170.867V170.867Z" fill="#F2F2F2"/>
<path d="M190.159 207.694H73.1221C72.1733 207.694 71.2633 207.317 70.5924 206.645C69.9215 205.974 69.5446 205.063 69.5446 204.114C69.5446 203.164 69.9215 202.253 70.5924 201.582C71.2633 200.91 72.1733 200.533 73.1221 200.533H190.159C191.107 200.533 192.017 200.91 192.688 201.582C193.359 202.253 193.736 203.164 193.736 204.114C193.736 205.063 193.359 205.974 192.688 206.645C192.017 207.317 191.107 207.694 190.159 207.694Z" fill="#F2F2F2"/>
<path d="M190.159 244.521H73.1221C72.1733 244.521 71.2633 244.143 70.5924 243.472C69.9215 242.801 69.5446 241.89 69.5446 240.94C69.5446 239.991 69.9215 239.08 70.5924 238.409C71.2633 237.737 72.1733 237.36 73.1221 237.36H190.159C191.107 237.36 192.017 237.737 192.688 238.409C193.359 239.08 193.736 239.991 193.736 240.94C193.736 241.89 193.359 242.801 192.688 243.472C192.017 244.143 191.107 244.521 190.159 244.521Z" fill="#F2F2F2"/>
<path d="M190.159 281.347H73.1221C72.1733 281.347 71.2633 280.97 70.5924 280.299C69.9215 279.627 69.5446 278.716 69.5446 277.767C69.5446 276.817 69.9215 275.907 70.5924 275.235C71.2633 274.564 72.1733 274.187 73.1221 274.187H190.159C191.107 274.187 192.017 274.564 192.688 275.235C193.359 275.907 193.736 276.817 193.736 277.767C193.736 278.716 193.359 279.627 192.688 280.299C192.017 280.97 191.107 281.347 190.159 281.347V281.347Z" fill="#F2F2F2"/>
<path d="M190.159 318.174H73.1221C72.1733 318.174 71.2633 317.797 70.5924 317.125C69.9215 316.454 69.5446 315.543 69.5446 314.594C69.5446 313.644 69.9215 312.733 70.5924 312.062C71.2633 311.39 72.1733 311.013 73.1221 311.013H190.159C191.107 311.013 192.017 311.39 192.688 312.062C193.359 312.733 193.736 313.644 193.736 314.594C193.736 315.543 193.359 316.454 192.688 317.125C192.017 317.797 191.107 318.174 190.159 318.174Z" fill="#F2F2F2"/>
<path d="M169.716 170.867H72.611C71.6622 170.867 70.7523 170.49 70.0813 169.819C69.4104 169.147 69.0335 168.236 69.0335 167.287C69.0335 166.337 69.4104 165.427 70.0813 164.755C70.7523 164.084 71.6622 163.707 72.611 163.707H169.716C170.664 163.707 171.574 164.084 172.245 164.755C172.916 165.427 173.293 166.337 173.293 167.287C173.293 168.236 172.916 169.147 172.245 169.819C171.574 170.49 170.664 170.867 169.716 170.867V170.867Z" fill="#F05D7A"/>
<path d="M139.562 207.694H72.611C71.6622 207.694 70.7523 207.317 70.0813 206.645C69.4104 205.974 69.0335 205.063 69.0335 204.114C69.0335 203.164 69.4104 202.253 70.0813 201.582C70.7523 200.91 71.6622 200.533 72.611 200.533H139.562C140.511 200.533 141.421 200.91 142.092 201.582C142.763 202.253 143.14 203.164 143.14 204.114C143.14 205.063 142.763 205.974 142.092 206.645C141.421 207.317 140.511 207.694 139.562 207.694Z" fill="#F05D7A"/>
<path d="M102.765 244.521H72.611C71.6622 244.521 70.7523 244.143 70.0813 243.472C69.4104 242.801 69.0335 241.89 69.0335 240.94C69.0335 239.991 69.4104 239.08 70.0813 238.409C70.7523 237.737 71.6622 237.36 72.611 237.36H102.765C103.713 237.36 104.623 237.737 105.294 238.409C105.965 239.08 106.342 239.991 106.342 240.94C106.342 241.89 105.965 242.801 105.294 243.472C104.623 244.143 103.713 244.521 102.765 244.521V244.521Z" fill="#F05D7A"/>
<path d="M178.915 281.347H72.611C71.6622 281.347 70.7523 280.97 70.0813 280.299C69.4104 279.627 69.0335 278.716 69.0335 277.767C69.0335 276.817 69.4104 275.907 70.0813 275.235C70.7523 274.564 71.6622 274.187 72.611 274.187H178.915C179.864 274.187 180.774 274.564 181.445 275.235C182.116 275.907 182.493 276.817 182.493 277.767C182.493 278.716 182.116 279.627 181.445 280.299C180.774 280.97 179.864 281.347 178.915 281.347V281.347Z" fill="#F05D7A"/>
<path d="M155.405 318.174H72.611C71.6622 318.174 70.7523 317.797 70.0813 317.125C69.4104 316.454 69.0335 315.543 69.0335 314.594C69.0335 313.644 69.4104 312.733 70.0813 312.062C70.7523 311.39 71.6622 311.013 72.611 311.013H155.405C156.354 311.013 157.264 311.39 157.935 312.062C158.606 312.733 158.983 313.644 158.983 314.594C158.983 315.543 158.606 316.454 157.935 317.125C157.264 317.797 156.354 318.174 155.405 318.174V318.174Z" fill="#F05D7A"/>
<path d="M238.711 163.707H237.689V170.867H238.711V163.707Z" fill="#F05D7A"/>
<path d="M246.377 171.379C245.568 171.379 244.778 171.139 244.106 170.689C243.433 170.24 242.909 169.601 242.6 168.853C242.29 168.105 242.209 167.282 242.367 166.489C242.525 165.695 242.914 164.966 243.486 164.394C244.058 163.821 244.786 163.432 245.579 163.274C246.373 163.116 247.195 163.197 247.942 163.507C248.689 163.816 249.327 164.341 249.777 165.014C250.226 165.687 250.466 166.478 250.466 167.287C250.464 168.372 250.033 169.412 249.267 170.179C248.5 170.946 247.461 171.378 246.377 171.379V171.379ZM246.377 164.218C245.771 164.218 245.178 164.398 244.673 164.735C244.169 165.072 243.776 165.552 243.544 166.113C243.312 166.673 243.251 167.29 243.37 167.886C243.488 168.481 243.78 169.028 244.209 169.457C244.638 169.886 245.184 170.178 245.779 170.297C246.374 170.415 246.99 170.355 247.551 170.122C248.111 169.89 248.59 169.497 248.927 168.992C249.264 168.487 249.444 167.894 249.444 167.287C249.443 166.473 249.119 165.693 248.544 165.118C247.97 164.543 247.19 164.219 246.377 164.218V164.218Z" fill="#F05D7A"/>
<path d="M238.711 200.533H237.689V207.694H238.711V200.533Z" fill="#F05D7A"/>
<path d="M246.377 208.205C245.568 208.205 244.778 207.965 244.106 207.516C243.433 207.066 242.909 206.427 242.6 205.679C242.29 204.932 242.209 204.109 242.367 203.315C242.525 202.522 242.914 201.792 243.486 201.22C244.058 200.648 244.786 200.258 245.579 200.1C246.373 199.942 247.195 200.024 247.942 200.333C248.689 200.643 249.327 201.167 249.777 201.84C250.226 202.513 250.466 203.304 250.466 204.114C250.464 205.198 250.033 206.238 249.267 207.006C248.5 207.773 247.461 208.204 246.377 208.205ZM246.377 201.045C245.771 201.045 245.178 201.225 244.673 201.562C244.169 201.899 243.776 202.378 243.544 202.939C243.312 203.5 243.251 204.117 243.37 204.712C243.488 205.308 243.78 205.854 244.209 206.284C244.638 206.713 245.184 207.005 245.779 207.124C246.374 207.242 246.99 207.181 247.551 206.949C248.111 206.717 248.59 206.323 248.927 205.819C249.264 205.314 249.444 204.721 249.444 204.114C249.443 203.3 249.119 202.52 248.544 201.945C247.97 201.369 247.19 201.046 246.377 201.045V201.045Z" fill="#F05D7A"/>
<path d="M238.711 237.36H237.689V244.521H238.711V237.36Z" fill="#F05D7A"/>
<path d="M246.377 245.032C245.568 245.032 244.778 244.792 244.106 244.342C243.433 243.893 242.909 243.254 242.6 242.506C242.29 241.758 242.209 240.936 242.367 240.142C242.525 239.348 242.914 238.619 243.486 238.047C244.058 237.475 244.786 237.085 245.579 236.927C246.373 236.769 247.195 236.85 247.942 237.16C248.689 237.47 249.327 237.994 249.777 238.667C250.226 239.34 250.466 240.131 250.466 240.94C250.464 242.025 250.033 243.065 249.267 243.832C248.5 244.599 247.461 245.031 246.377 245.032V245.032ZM246.377 237.871C245.771 237.871 245.178 238.051 244.673 238.389C244.169 238.726 243.776 239.205 243.544 239.766C243.312 240.327 243.251 240.944 243.37 241.539C243.488 242.134 243.78 242.681 244.209 243.11C244.638 243.539 245.184 243.832 245.779 243.95C246.374 244.069 246.99 244.008 247.551 243.776C248.111 243.543 248.59 243.15 248.927 242.645C249.264 242.141 249.444 241.547 249.444 240.94C249.443 240.127 249.119 239.347 248.544 238.771C247.97 238.196 247.19 237.872 246.377 237.871V237.871Z" fill="#F05D7A"/>
<path d="M238.711 274.187H237.689V281.347H238.711V274.187Z" fill="#F05D7A"/>
<path d="M246.377 281.859C245.568 281.859 244.778 281.619 244.106 281.169C243.433 280.72 242.909 280.08 242.6 279.333C242.29 278.585 242.209 277.762 242.367 276.969C242.525 276.175 242.914 275.446 243.486 274.874C244.058 274.301 244.786 273.912 245.579 273.754C246.373 273.596 247.195 273.677 247.942 273.987C248.689 274.296 249.327 274.821 249.777 275.494C250.226 276.167 250.466 276.958 250.466 277.767C250.464 278.852 250.033 279.892 249.267 280.659C248.5 281.426 247.461 281.858 246.377 281.859V281.859ZM246.377 274.698C245.771 274.698 245.178 274.878 244.673 275.215C244.169 275.552 243.776 276.032 243.544 276.593C243.312 277.153 243.251 277.77 243.37 278.366C243.488 278.961 243.78 279.508 244.209 279.937C244.638 280.366 245.184 280.658 245.779 280.777C246.374 280.895 246.99 280.834 247.551 280.602C248.111 280.37 248.59 279.977 248.927 279.472C249.264 278.967 249.444 278.374 249.444 277.767C249.443 276.953 249.119 276.173 248.544 275.598C247.97 275.023 247.19 274.699 246.377 274.698Z" fill="#F05D7A"/>
<path d="M238.711 311.013H237.689V318.174H238.711V311.013Z" fill="#F05D7A"/>
<path d="M246.377 318.685C245.568 318.685 244.778 318.445 244.106 317.996C243.433 317.546 242.909 316.907 242.6 316.159C242.29 315.412 242.209 314.589 242.367 313.795C242.525 313.002 242.914 312.272 243.486 311.7C244.058 311.128 244.786 310.738 245.579 310.58C246.373 310.422 247.195 310.503 247.942 310.813C248.689 311.123 249.327 311.647 249.777 312.32C250.226 312.993 250.466 313.784 250.466 314.594C250.464 315.678 250.033 316.718 249.267 317.486C248.5 318.253 247.461 318.684 246.377 318.685V318.685ZM246.377 311.525C245.771 311.525 245.178 311.705 244.673 312.042C244.169 312.379 243.776 312.858 243.544 313.419C243.312 313.98 243.251 314.597 243.37 315.192C243.488 315.788 243.78 316.334 244.209 316.764C244.638 317.193 245.184 317.485 245.779 317.603C246.374 317.722 246.99 317.661 247.551 317.429C248.111 317.197 248.59 316.803 248.927 316.299C249.264 315.794 249.444 315.201 249.444 314.594C249.443 313.78 249.119 313 248.544 312.424C247.97 311.849 247.19 311.526 246.377 311.525Z" fill="#F05D7A"/>
<path d="M246.377 169.333C247.506 169.333 248.421 168.417 248.421 167.287C248.421 166.157 247.506 165.241 246.377 165.241C245.248 165.241 244.333 166.157 244.333 167.287C244.333 168.417 245.248 169.333 246.377 169.333Z" fill="#F05D7A"/>
<path d="M246.377 279.813C247.506 279.813 248.421 278.897 248.421 277.767C248.421 276.637 247.506 275.721 246.377 275.721C245.248 275.721 244.333 276.637 244.333 277.767C244.333 278.897 245.248 279.813 246.377 279.813Z" fill="#F05D7A"/>
<path d="M246.377 316.64C247.506 316.64 248.421 315.724 248.421 314.594C248.421 313.464 247.506 312.548 246.377 312.548C245.248 312.548 244.333 313.464 244.333 314.594C244.333 315.724 245.248 316.64 246.377 316.64Z" fill="#F05D7A"/>
<path d="M159.75 134.785C161.725 134.785 163.327 133.182 163.327 131.205C163.327 129.227 161.725 127.624 159.75 127.624C157.774 127.624 156.172 129.227 156.172 131.205C156.172 133.182 157.774 134.785 159.75 134.785Z" fill="#3F3D56"/>
<path d="M159.75 39.1607C161.725 39.1607 163.327 37.5578 163.327 35.5804C163.327 33.603 161.725 32 159.75 32C157.774 32 156.172 33.603 156.172 35.5804C156.172 37.5578 157.774 39.1607 159.75 39.1607Z" fill="#3F3D56"/>
<path d="M160.261 35.5803H159.239V130.204H160.261V35.5803Z" fill="#3F3D56"/>
</g>
</svg>
