<svg width="62" height="62" viewBox="0 0 62 62" fill="none" xmlns="http://www.w3.org/2000/svg">
<circle cx="31" cy="31" r="31" fill="url(#paint0_linear)"/>
<mask id="mask0" mask-type="alpha" maskUnits="userSpaceOnUse" x="0" y="0" width="62" height="62">
<circle cx="31" cy="31" r="31" fill="url(#paint1_linear)"/>
</mask>
<g mask="url(#mask0)">
<path d="M36 19C36 33.0833 28.0461 44.8976 13.9628 44.8976C-0.120422 44.8976 -13.0372 35.3976 -14.5372 23.8976C-17.5372 10.8976 -1.58326 -14 12.5 -14C26.5833 -14 36 4.91674 36 19Z" fill="url(#paint2_linear)" fill-opacity="0.28"/>
</g>
<path d="M34.4244 40.4487H26.6198V43.7852H34.4244V40.4487Z" fill="#445EA0"/>
<path d="M28.0536 40.4487H26.6198V43.7852H28.0536V40.4487Z" fill="#2E4C89"/>
<path d="M38.0741 45.5195C38.0741 45.7183 37.9115 45.8809 37.7128 45.8809H23.3317C23.133 45.8809 22.9704 45.7183 22.9704 45.5195V44.0742C22.9704 43.8755 23.133 43.7129 23.3317 43.7129H37.7128C37.9115 43.7129 38.0741 43.8755 38.0741 44.0742V45.5195Z" fill="#293D7C"/>
<path d="M24.4043 45.5195V44.0742C24.4043 43.8755 24.5669 43.7129 24.7656 43.7129H23.3317C23.133 43.7129 22.9704 43.8755 22.9704 44.0742V45.5195C22.9704 45.7183 23.133 45.8809 23.3317 45.8809H24.7656C24.5669 45.8809 24.4043 45.7183 24.4043 45.5195Z" fill="#1A2B63"/>
<path d="M14 39.7986C14 40.196 14.3252 40.5212 14.7227 40.5212H36.415V35.683H14V39.7986Z" fill="#293D7C"/>
<path d="M15.4339 39.7986V35.683H14V39.7986C14 40.196 14.3252 40.5212 14.7227 40.5212H16.1566C15.7591 40.5212 15.4339 40.196 15.4339 39.7986Z" fill="#1A2B63"/>
<path d="M36.415 33.7393C36.415 33.5799 36.5446 33.4502 36.7041 33.4502H47.0445V17.8031C47.0445 17.3662 46.6871 17.0088 46.2503 17.0088H14.7943C14.3574 17.0088 14 17.3662 14 17.8031V35.7552H36.415V33.7393Z" fill="#445EA0"/>
<path d="M36.415 33.7393C36.415 33.5799 36.5446 33.4502 36.704 33.4502H45.4559V18.9588C45.4559 18.7601 45.2933 18.5975 45.0946 18.5975H15.95C15.7513 18.5975 15.5887 18.7601 15.5887 18.9588V33.8051C15.5887 34.0039 15.7513 34.1665 15.95 34.1665H36.4149L36.415 33.7393Z" fill="#EEF6FF"/>
<path d="M30.5221 39.1689C31.0773 39.1689 31.5274 38.7188 31.5274 38.1636C31.5274 37.6084 31.0773 37.1583 30.5221 37.1583C29.9669 37.1583 29.5168 37.6084 29.5168 38.1636C29.5168 38.7188 29.9669 39.1689 30.5221 39.1689Z" fill="#445EA0"/>
<path d="M44.0886 27.9139C44.0886 28.1126 43.926 28.2752 43.7273 28.2752H32.2763C32.0775 28.2752 31.9149 28.1126 31.9149 27.9139V22.6589C31.9149 22.4601 32.0775 22.2975 32.2763 22.2975H43.7273C43.926 22.2975 44.0886 22.4601 44.0886 22.6589V27.9139Z" fill="#FFAF10"/>
<path d="M33.3489 27.9139V22.6589C33.3489 22.4601 33.5115 22.2975 33.7102 22.2975H32.2763C32.0776 22.2975 31.915 22.4601 31.915 22.6589V27.9139C31.915 28.1126 32.0776 28.2752 32.2763 28.2752H33.7102C33.5115 28.2752 33.3489 28.1126 33.3489 27.9139Z" fill="#FF9518"/>
<path d="M35.6266 30.3525H32.5111C32.2118 30.3525 31.9691 30.1099 31.9691 29.8105C31.9691 29.5112 32.2118 29.2686 32.5111 29.2686H35.6266C35.926 29.2686 36.1686 29.5112 36.1686 29.8105C36.1686 30.1099 35.926 30.3525 35.6266 30.3525Z" fill="#C3DDF4"/>
<path d="M35.6266 31.9999H32.5111C32.2118 31.9999 31.9691 31.7573 31.9691 31.4579C31.9691 31.1585 32.2118 30.9159 32.5111 30.9159H35.6266C35.926 30.9159 36.1686 31.1585 36.1686 31.4579C36.1686 31.7573 35.926 31.9999 35.6266 31.9999Z" fill="#C3DDF4"/>
<path d="M39.3855 30.3525H37.0686C36.7693 30.3525 36.5266 30.1099 36.5266 29.8105C36.5266 29.5112 36.7693 29.2686 37.0686 29.2686H39.3855C39.6848 29.2686 39.9275 29.5112 39.9275 29.8105C39.9275 30.1099 39.6848 30.3525 39.3855 30.3525Z" fill="#C3DDF4"/>
<path d="M39.3855 31.9999H37.0686C36.7693 31.9999 36.5266 31.7573 36.5266 31.4579C36.5266 31.1585 36.7693 30.9159 37.0686 30.9159H39.3855C39.6848 30.9159 39.9275 31.1585 39.9275 31.4579C39.9275 31.7573 39.6848 31.9999 39.3855 31.9999Z" fill="#C3DDF4"/>
<path d="M43.7569 30.3525H40.8059C40.5066 30.3525 40.2639 30.1099 40.2639 29.8105C40.2639 29.5112 40.5066 29.2686 40.8059 29.2686H43.7569C44.0563 29.2686 44.2989 29.5112 44.2989 29.8105C44.2989 30.1099 44.0563 30.3525 43.7569 30.3525Z" fill="#C3DDF4"/>
<path d="M43.7569 31.9999H40.8059C40.5066 31.9999 40.2639 31.7573 40.2639 31.4579C40.2639 31.1585 40.5066 30.9159 40.8059 30.9159H43.7569C44.0563 30.9159 44.2989 31.1585 44.2989 31.4579C44.2989 31.7573 44.0563 31.9999 43.7569 31.9999Z" fill="#C3DDF4"/>
<path d="M39.9697 21.0276C39.9697 21.2263 39.8071 21.3889 39.6084 21.3889H38.8136C38.6148 21.3889 38.4522 21.2263 38.4522 21.0276V20.2327C38.4522 20.034 38.6148 19.8714 38.8136 19.8714H39.6084C39.8071 19.8714 39.9697 20.034 39.9697 20.2327V21.0276Z" fill="#EF8318"/>
<path d="M41.993 21.0276C41.993 21.2263 41.8304 21.3889 41.6317 21.3889H40.8369C40.6381 21.3889 40.4755 21.2263 40.4755 21.0276V20.2327C40.4755 20.034 40.6381 19.8714 40.8369 19.8714H41.6317C41.8304 19.8714 41.993 20.034 41.993 20.2327V21.0276Z" fill="#EF8318"/>
<path d="M44.0163 21.0276C44.0163 21.2263 43.8537 21.3889 43.655 21.3889H42.8601C42.6614 21.3889 42.4988 21.2263 42.4988 21.0276V20.2327C42.4988 20.034 42.6614 19.8714 42.8601 19.8714H43.655C43.8537 19.8714 44.0163 20.034 44.0163 20.2327V21.0276Z" fill="#EF8318"/>
<path d="M27.7954 31.5726H27.145C26.8456 31.5726 26.603 31.33 26.603 31.0306C26.603 30.7312 26.8456 30.4886 27.145 30.4886H27.7954C28.0947 30.4886 28.3373 30.7312 28.3373 31.0306C28.3373 31.33 28.0947 31.5726 27.7954 31.5726Z" fill="#69CDFF"/>
<path d="M25.3383 31.5726H24.6879C24.3886 31.5726 24.146 31.33 24.146 31.0306C24.146 30.7312 24.3886 30.4886 24.6879 30.4886H25.3383C25.6377 30.4886 25.8803 30.7312 25.8803 31.0306C25.8803 31.33 25.6377 31.5726 25.3383 31.5726Z" fill="#69CDFF"/>
<path d="M22.8812 31.5726H22.2308C21.9315 31.5726 21.6888 31.33 21.6888 31.0306C21.6888 30.7312 21.9315 30.4886 22.2308 30.4886H22.8812C23.1805 30.4886 23.4232 30.7312 23.4232 31.0306C23.4233 31.33 23.1806 31.5726 22.8812 31.5726Z" fill="#69CDFF"/>
<path d="M20.4242 31.5726H19.7738C19.4745 31.5726 19.2318 31.33 19.2318 31.0306C19.2318 30.7312 19.4745 30.4886 19.7738 30.4886H20.4242C20.7235 30.4886 20.9662 30.7312 20.9662 31.0306C20.9662 31.33 20.7236 31.5726 20.4242 31.5726Z" fill="#69CDFF"/>
<path d="M29.9091 29.3397C29.6098 29.3397 29.3671 29.0971 29.3671 28.7977V28.1473C29.3671 27.848 29.6098 27.6053 29.9091 27.6053C30.2085 27.6053 30.4511 27.848 30.4511 28.1473V28.7977C30.4511 29.0971 30.2085 29.3397 29.9091 29.3397Z" fill="#69CDFF"/>
<path d="M29.9091 26.8827C29.6098 26.8827 29.3671 26.6401 29.3671 26.3407V25.6903C29.3671 25.391 29.6098 25.1483 29.9091 25.1483C30.2085 25.1483 30.4511 25.391 30.4511 25.6903V26.3407C30.4511 26.6401 30.2085 26.8827 29.9091 26.8827Z" fill="#69CDFF"/>
<path d="M29.9091 24.4257C29.6098 24.4257 29.3671 24.1831 29.3671 23.8837V23.2333C29.3671 22.934 29.6098 22.6913 29.9091 22.6913C30.2085 22.6913 30.4511 22.934 30.4511 23.2333V23.8837C30.4511 24.1831 30.2085 24.4257 29.9091 24.4257Z" fill="#69CDFF"/>
<path d="M17.6239 29.3397C17.3246 29.3397 17.0819 29.0971 17.0819 28.7977V28.1473C17.0819 27.848 17.3246 27.6053 17.6239 27.6053C17.9232 27.6053 18.1659 27.848 18.1659 28.1473V28.7977C18.1659 29.0971 17.9233 29.3397 17.6239 29.3397Z" fill="#69CDFF"/>
<path d="M17.6239 26.8827C17.3246 26.8827 17.0819 26.6401 17.0819 26.3407V25.6903C17.0819 25.391 17.3246 25.1483 17.6239 25.1483C17.9232 25.1483 18.1659 25.391 18.1659 25.6903V26.3407C18.1659 26.6401 17.9233 26.8827 17.6239 26.8827Z" fill="#69CDFF"/>
<path d="M17.6239 24.4257C17.3246 24.4257 17.0819 24.1831 17.0819 23.8837V23.2333C17.0819 22.934 17.3246 22.6913 17.6239 22.6913C17.9232 22.6913 18.1659 22.934 18.1659 23.2333V23.8837C18.1659 24.1831 17.9233 24.4257 17.6239 24.4257Z" fill="#69CDFF"/>
<path d="M27.7954 21.7445H27.145C26.8456 21.7445 26.603 21.5019 26.603 21.2025C26.603 20.9031 26.8456 20.6605 27.145 20.6605H27.7954C28.0947 20.6605 28.3373 20.9031 28.3373 21.2025C28.3373 21.5019 28.0947 21.7445 27.7954 21.7445Z" fill="#69CDFF"/>
<path d="M25.3383 21.7445H24.6879C24.3886 21.7445 24.146 21.5019 24.146 21.2025C24.146 20.9031 24.3886 20.6605 24.6879 20.6605H25.3383C25.6377 20.6605 25.8803 20.9031 25.8803 21.2025C25.8803 21.5019 25.6377 21.7445 25.3383 21.7445Z" fill="#69CDFF"/>
<path d="M22.8812 21.7445H22.2308C21.9315 21.7445 21.6888 21.5019 21.6888 21.2025C21.6888 20.9031 21.9315 20.6605 22.2308 20.6605H22.8812C23.1805 20.6605 23.4232 20.9031 23.4232 21.2025C23.4232 21.5019 23.1806 21.7445 22.8812 21.7445Z" fill="#69CDFF"/>
<path d="M20.4242 21.7445H19.7738C19.4745 21.7445 19.2318 21.5019 19.2318 21.2025C19.2318 20.9031 19.4745 20.6605 19.7738 20.6605H20.4242C20.7235 20.6605 20.9662 20.9031 20.9662 21.2025C20.9662 21.5019 20.7236 21.7445 20.4242 21.7445Z" fill="#69CDFF"/>
<path d="M28.4638 29.224C28.4638 29.4227 28.3012 29.5853 28.1025 29.5853H19.4306C19.2319 29.5853 19.0693 29.4227 19.0693 29.224V23.0092C19.0693 22.8104 19.2319 22.6478 19.4306 22.6478H28.1025C28.3012 22.6478 28.4638 22.8104 28.4638 23.0092V29.224Z" fill="#5DC1D8"/>
<path d="M20.5032 29.224V23.0092C20.5032 22.8104 20.6658 22.6478 20.8645 22.6478H19.4305C19.2318 22.6478 19.0692 22.8104 19.0692 23.0092V29.224C19.0692 29.4227 19.2318 29.5853 19.4305 29.5853H20.8645C20.6658 29.5853 20.5032 29.4227 20.5032 29.224Z" fill="#28A5A5"/>
<path d="M30.9206 21.7448C30.9206 21.9435 30.758 22.1061 30.5593 22.1061H29.0417C28.843 22.1061 28.6804 21.9435 28.6804 21.7448V20.2272C28.6804 20.0285 28.843 19.8659 29.0417 19.8659H30.5593C30.758 19.8659 30.9206 20.0285 30.9206 20.2272V21.7448Z" fill="#52BBEF"/>
<path d="M18.9245 21.8893C18.9245 22.0881 18.7619 22.2507 18.5632 22.2507H17.0456C16.8469 22.2507 16.6843 22.0881 16.6843 21.8893V20.3718C16.6843 20.173 16.8469 20.0104 17.0456 20.0104H18.5632C18.7619 20.0104 18.9245 20.173 18.9245 20.3718V21.8893Z" fill="#52BBEF"/>
<path d="M30.9206 31.8529C30.9206 32.0516 30.758 32.2142 30.5593 32.2142H29.0417C28.843 32.2142 28.6804 32.0516 28.6804 31.8529V30.3353C28.6804 30.1366 28.843 29.974 29.0417 29.974H30.5593C30.758 29.974 30.9206 30.1366 30.9206 30.3353V31.8529Z" fill="#52BBEF"/>
<path d="M18.9245 31.8529C18.9245 32.0516 18.7619 32.2142 18.5632 32.2142H17.0456C16.8469 32.2142 16.6843 32.0516 16.6843 31.8529V30.3353C16.6843 30.1366 16.8469 29.974 17.0456 29.974H18.5632C18.7619 29.974 18.9245 30.1366 18.9245 30.3353V31.8529Z" fill="#52BBEF"/>
<path d="M29.4769 21.7448V20.2272C29.4769 20.0285 29.6395 19.8659 29.8382 19.8659H29.0417C28.843 19.8659 28.6804 20.0285 28.6804 20.2272V21.7448C28.6804 21.9435 28.843 22.1061 29.0417 22.1061H29.8382C29.6395 22.1061 29.4769 21.9435 29.4769 21.7448Z" fill="#1E99D6"/>
<path d="M17.4808 21.8893V20.3718C17.4808 20.173 17.6434 20.0104 17.8422 20.0104H17.0456C16.8469 20.0104 16.6843 20.173 16.6843 20.3718V21.8893C16.6843 22.0881 16.8469 22.2507 17.0456 22.2507H17.8422C17.6434 22.2507 17.4808 22.0881 17.4808 21.8893Z" fill="#1E99D6"/>
<path d="M29.4769 31.8529V30.3353C29.4769 30.1366 29.6395 29.974 29.8382 29.974H29.0417C28.843 29.974 28.6804 30.1366 28.6804 30.3353V31.8529C28.6804 32.0516 28.843 32.2142 29.0417 32.2142H29.8382C29.6395 32.2142 29.4769 32.0516 29.4769 31.8529Z" fill="#1E99D6"/>
<path d="M17.4808 31.8529V30.3353C17.4808 30.1366 17.6434 29.974 17.8422 29.974H17.0456C16.8469 29.974 16.6843 30.1366 16.6843 30.3353V31.8529C16.6843 32.0516 16.8469 32.2142 17.0456 32.2142H17.8422C17.6434 32.2142 17.4808 32.0516 17.4808 31.8529Z" fill="#1E99D6"/>
<path d="M45.4687 39.5051C45.4574 39.4746 45.4583 39.4573 45.4599 39.4516C45.46 39.4516 45.4644 39.4512 45.4685 39.4512C45.4767 39.4512 45.4911 39.4528 45.5129 39.4609L48.5556 40.5785V33.7394C48.5556 33.5406 48.393 33.3781 48.1942 33.3781H36.704C36.5052 33.3781 36.3427 33.5406 36.3427 33.7394V42.0355C36.3427 42.2342 36.5052 42.3968 36.704 42.3968H46.5307L45.4687 39.5051Z" fill="#5DC1D8"/>
<path d="M37.7766 42.0353V33.7393C37.7766 33.5405 37.9392 33.3779 38.138 33.3779H36.7041C36.5053 33.3779 36.3427 33.5405 36.3427 33.7393V42.0353C36.3427 42.2341 36.5053 42.3967 36.7041 42.3967H38.138C37.9392 42.3967 37.7766 42.2341 37.7766 42.0353Z" fill="#28A5A5"/>
<path d="M45.5378 39.393C45.4188 39.3493 45.3571 39.4109 45.4008 39.53L47.3061 44.7174C47.3498 44.8365 47.459 44.8604 47.5487 44.7708L48.5602 43.7593C48.6498 43.6696 48.7966 43.6696 48.8864 43.7593L50.0519 44.9249C50.1416 45.0146 50.2884 45.0146 50.3781 44.9249L50.9327 44.3703C51.0224 44.2807 51.0224 44.1338 50.9327 44.0441L49.7671 42.8786C49.6775 42.7889 49.6775 42.6421 49.7671 42.5524L50.7786 41.5409C50.8683 41.4512 50.8443 41.3421 50.7252 41.2983L45.5378 39.393Z" fill="#293D7C"/>
<defs>
<linearGradient id="paint0_linear" x1="37.5" y1="7.89762e-07" x2="35" y2="62" gradientUnits="userSpaceOnUse">
<stop stop-color="#FEB8E6"/>
<stop offset="1" stop-color="#FFD8E7"/>
</linearGradient>
<linearGradient id="paint1_linear" x1="19" y1="3.3071e-07" x2="38" y2="62" gradientUnits="userSpaceOnUse">
<stop stop-color="#9EBFFB"/>
<stop offset="1" stop-color="#A8E0F2"/>
</linearGradient>
<linearGradient id="paint2_linear" x1="22" y1="2" x2="23" y2="42.5" gradientUnits="userSpaceOnUse">
<stop stop-color="#EC8FD5"/>
<stop offset="1" stop-color="#C789B2"/>
</linearGradient>
</defs>
</svg>
