<svg width="62" height="62" viewBox="0 0 62 62" fill="none" xmlns="http://www.w3.org/2000/svg">
<circle cx="31" cy="31" r="31" fill="url(#paint0_linear)"/>
<mask id="mask0" mask-type="alpha" maskUnits="userSpaceOnUse" x="0" y="0" width="62" height="62">
<circle cx="31" cy="31" r="31" fill="url(#paint1_linear)"/>
</mask>
<g mask="url(#mask0)">
<path d="M69 2C69 16.0833 61.4127 27.8035 47.3295 27.8035C33.2462 27.8035 17.5 21.3035 13.5 10.8035C9.5 0.303463 16.5 -20.6965 37.5 -22.6965C58.5 -24.6965 69 -12.0833 69 2Z" fill="url(#paint2_linear)" fill-opacity="0.28"/>
</g>
<path d="M49 15.4609H31L29.5927 36.3616L49 34.954V15.4609Z" fill="#03232E"/>
<path d="M13 15.4609V34.954L31 36.3616V15.4609L13 15.4609Z" fill="#07485E"/>
<path d="M36.9799 45.419V40.9338L29.5927 39.5265L31 45.419H36.9799Z" fill="#87A0AF"/>
<path d="M25.0201 45.419H31V39.5265L25.0201 40.9338V45.419Z" fill="#B4D2D7"/>
<path d="M40.3436 46.4735V44.3641H31L30.2963 45.4188L31 46.4735H40.3436Z" fill="#B4D2D7"/>
<path d="M21.6564 44.3641H31V46.4735H21.6564V44.3641Z" fill="#E1EBF0"/>
<path d="M31 34.954L29.5927 37.9442L31 40.9338H49V34.954H31Z" fill="#B4D2D7"/>
<path d="M13 34.954H31V40.9338H13V34.954Z" fill="#E1EBF0"/>
<path d="M32.1212 24.4211H45.6363V26.5305H32.1212V24.4211Z" fill="#00A0FA"/>
<path d="M16.3637 24.4211H29.8788V26.5305H16.3637V24.4211Z" fill="#00C2FF"/>
<path d="M16.3637 19.9362H20.8486V22.0456H16.3637V19.9362Z" fill="#00C2FF"/>
<path d="M41.1514 19.9362H45.6363V22.0456H41.1514V19.9362Z" fill="#00A0FA"/>
<path d="M16.3637 28.9063H20.8486V31.0157H16.3637V28.9063Z" fill="#00C2FF"/>
<path d="M41.1514 28.9063H45.6363V31.0157H41.1514V28.9063Z" fill="#00A0FA"/>
<path d="M38.9088 22.0456H31L30.2963 20.9909L31 19.9362H38.9088V22.0456Z" fill="#00A0FA"/>
<path d="M38.9088 31.0157H31L30.2963 29.961L31 28.9063H38.9088V31.0157Z" fill="#00A0FA"/>
<path d="M23.0912 19.9362H31V22.0456H23.0912V19.9362Z" fill="#00C2FF"/>
<path d="M23.0912 28.9063H31V31.0157H23.0912V28.9063Z" fill="#00C2FF"/>
<defs>
<linearGradient id="paint0_linear" x1="19" y1="3.3071e-07" x2="38" y2="62" gradientUnits="userSpaceOnUse">
<stop stop-color="#FF9E98"/>
<stop offset="1" stop-color="#FEC6B4"/>
</linearGradient>
<linearGradient id="paint1_linear" x1="19" y1="3.3071e-07" x2="38" y2="62" gradientUnits="userSpaceOnUse">
<stop stop-color="#9EBFFB"/>
<stop offset="1" stop-color="#A8E0F2"/>
</linearGradient>
<linearGradient id="paint2_linear" x1="30.0735" y1="-19.8012" x2="46.0735" y2="29.6988" gradientUnits="userSpaceOnUse">
<stop stop-color="#C07875"/>
<stop offset="1" stop-color="#C78276"/>
</linearGradient>
</defs>
</svg>
